<?xml version="1.0" encoding="UTF-8" standalone="no"?>
<!DOCTYPE svg PUBLIC "-//W3C//DTD SVG 1.1//EN" "http://www.w3.org/Graphics/SVG/1.1/DTD/svg11.dtd">
<svg 
    xmlns="http://www.w3.org/2000/svg" 
    version="1.1" 
    viewBox="0.00 0.00 1448.00 1448.00"
>
<style>
    path{
        cursor: pointer;
    }
</style>

<!-- Centro-Oeste -->
<path id="DF" class="centro_oeste" stroke="#000" stroke-width="3" fill="#ffffff" d="
  M 936.72 796.93
  C 935.09 795.91 933.94 795.05 934.00 792.89
  Q 934.16 787.34 934.77 778.50
  C 935.03 774.80 936.71 772.51 940.70 772.51
  Q 952.91 772.50 965.09 772.49
  C 968.02 772.49 970.39 774.07 970.26 777.15
  Q 970.04 782.39 968.91 787.52
  Q 968.81 787.99 968.94 788.44
  C 970.72 794.83 966.94 797.25 961.12 797.25
  Q 949.25 797.26 937.82 797.24
  A 2.14 2.09 60.1 0 1 936.72 796.93
  Z"
/>

<path id="GO" class="centro_oeste" stroke="#000" stroke-width="3" fill="#ffffff" d="
  M 861.66 892.34
  L 861.38 894.06
  Q 861.32 894.46 861.08 894.78
  C 857.93 898.98 856.68 906.21 850.38 906.78
  A 1.23 1.23 0.0 0 0 849.62 907.16
  L 842.01 915.48
  A 1.13 1.12 16.7 0 1 841.34 915.84
  C 836.80 916.52 835.65 913.78 832.13 912.36
  C 828.17 910.75 824.17 907.51 820.20 906.86
  C 817.67 906.45 815.50 906.82 813.20 905.64
  C 806.13 902.03 799.57 897.53 792.40 893.97
  Q 791.40 893.47 789.56 891.94
  C 785.11 888.22 774.98 892.91 771.49 889.12
  C 768.91 886.30 770.67 882.36 772.39 879.59
  A 1.60 1.60 0.0 0 0 771.46 877.20
  C 764.39 875.25 764.61 869.33 765.65 863.45
  Q 765.74 862.97 765.37 862.64
  L 763.75 861.19
  A 1.23 1.19 12.5 0 1 763.42 860.69
  Q 761.66 855.70 759.72 850.78
  C 758.95 848.83 759.53 843.85 760.06 840.79
  C 760.65 837.43 760.36 834.22 761.85 831.10
  Q 764.67 825.19 767.13 819.66
  A 4.47 4.43 89.7 0 1 769.31 817.44
  C 773.78 815.34 779.11 812.67 781.43 807.81
  C 782.86 804.82 783.37 800.64 784.69 797.13
  C 786.18 793.13 792.77 786.94 796.55 785.06
  Q 800.67 783.00 804.90 782.52
  A 3.03 3.02 -81.7 0 0 807.34 780.69
  Q 809.30 776.09 811.54 771.32
  C 812.83 768.56 814.04 763.56 816.26 761.02
  Q 818.03 758.99 823.52 754.83
  C 826.81 752.33 829.90 752.06 833.84 751.76
  A 0.82 0.80 5.9 0 0 834.54 751.20
  C 836.29 745.56 838.65 739.66 839.10 733.79
  Q 839.32 730.87 839.76 727.98
  C 840.35 723.96 843.01 721.84 844.03 718.07
  Q 845.68 711.92 845.59 705.53
  A 0.58 0.56 62.3 0 1 845.68 705.22
  L 853.36 693.04
  A 0.95 0.92 62.4 0 0 853.51 692.53
  C 853.48 689.06 852.95 685.92 854.54 682.70
  C 856.34 679.04 857.77 676.32 858.90 671.99
  Q 860.36 666.34 864.06 661.87
  C 867.26 658.01 872.76 658.78 873.24 664.10
  Q 873.59 668.05 872.31 670.82
  C 871.08 673.51 868.45 678.87 872.23 680.52
  Q 882.96 685.18 894.60 688.62
  A 2.18 2.17 -72.7 0 0 897.28 687.20
  C 899.03 681.81 906.40 665.32 914.71 673.24
  Q 921.43 679.65 921.03 689.59
  A 0.66 0.66 0.0 0 0 922.24 689.99
  C 925.87 684.60 931.82 690.83 937.10 687.36
  C 941.59 684.40 944.16 688.09 946.87 690.99
  Q 947.22 691.36 947.72 691.41
  Q 950.22 691.64 952.26 693.18
  A 1.63 1.56 65.5 0 0 953.01 693.48
  Q 954.86 693.69 956.26 694.95
  A 0.48 0.48 0.0 0 0 957.06 694.61
  C 957.21 689.95 961.92 688.93 965.41 690.55
  Q 965.85 690.75 966.30 690.58
  C 973.87 687.72 978.31 685.32 987.63 686.67
  Q 988.15 686.75 988.52 686.38
  L 995.36 679.69
  Q 995.76 679.30 996.32 679.24
  Q 1000.37 678.80 1004.45 679.06
  A 1.54 1.49 -53.5 0 0 1005.11 678.95
  C 1009.48 677.25 1011.15 678.98 1013.87 681.99
  C 1017.24 685.74 1013.47 688.55 1013.51 692.24
  Q 1013.51 692.74 1013.81 693.14
  Q 1016.65 696.95 1013.40 701.38
  C 1008.50 708.04 1007.71 720.88 1012.18 727.80
  C 1013.80 730.32 1016.88 731.30 1018.26 733.76
  C 1020.11 737.07 1019.21 740.10 1020.01 743.68
  Q 1020.88 747.58 1019.67 751.43
  A 1.76 1.73 78.8 0 1 1019.15 752.22
  Q 1018.38 752.88 1017.24 754.58
  Q 1014.51 758.70 1008.31 757.92
  Q 1003.40 757.31 1001.72 753.76
  Q 1001.52 753.33 1001.10 753.11
  L 997.55 751.19
  Q 997.08 750.94 997.04 751.47
  C 996.74 755.44 997.72 760.42 992.07 760.86
  C 988.62 761.13 983.73 762.76 985.08 767.20
  C 986.10 770.54 983.82 774.71 985.03 777.08
  C 986.83 780.60 988.75 788.39 984.84 791.42
  C 982.86 792.96 978.09 793.40 975.18 794.32
  A 1.88 1.80 10.3 0 0 974.36 794.86
  Q 972.66 796.85 970.04 796.49
  Q 969.45 796.40 969.47 797.00
  C 969.63 802.62 966.91 808.18 965.58 813.64
  Q 965.46 814.13 965.86 814.43
  Q 972.68 819.44 973.79 828.44
  C 974.31 832.70 968.53 837.01 965.45 839.22
  Q 964.16 840.14 961.10 845.14
  Q 960.85 845.54 961.27 845.76
  C 964.25 847.30 967.80 847.05 968.03 851.55
  Q 968.24 855.61 966.56 859.34
  Q 966.34 859.81 966.49 860.31
  C 967.72 864.39 968.28 868.27 964.60 870.82
  C 959.21 874.56 953.42 877.65 948.29 881.70
  C 944.90 884.38 941.78 883.63 937.77 881.70
  C 931.77 878.82 923.79 879.61 914.56 879.79
  C 913.23 879.81 912.54 880.75 911.33 880.97
  Q 903.43 882.43 896.86 886.93
  C 893.80 889.03 890.85 889.23 887.96 887.14
  Q 887.51 886.81 887.02 887.06
  C 885.50 887.84 884.53 888.52 882.74 888.49
  C 874.14 888.37 869.52 888.52 862.17 891.70
  Q 861.74 891.88 861.66 892.34
  Z
  M 938.48 776.48
  L 937.65 792.91
  Q 937.62 793.50 938.22 793.50
  L 964.37 793.50
  Q 964.71 793.50 964.74 793.16
  L 966.45 777.05
  Q 966.62 775.50 965.06 775.50
  L 939.52 775.50
  Q 938.53 775.50 938.48 776.48
  Z"
/>

<path id="MS" class="centro_oeste" stroke="#000" stroke-width="3" fill="#ffffff" d="
  M 737.37 1060.58
  C 736.12 1065.34 734.69 1069.56 734.21 1074.63
  C 733.93 1077.50 733.32 1081.77 729.80 1082.40
  C 721.30 1083.93 719.06 1079.32 713.19 1075.07
  A 1.34 1.34 0.0 0 0 711.93 1074.89
  Q 707.06 1076.62 702.42 1079.11
  C 697.65 1081.67 689.75 1080.44 685.81 1077.22
  A 1.76 1.73 -77.8 0 1 685.21 1076.27
  Q 684.14 1071.90 681.52 1068.25
  A 1.39 1.38 27.6 0 1 681.25 1067.40
  Q 681.26 1062.38 681.24 1057.43
  C 681.23 1055.88 680.21 1055.13 679.89 1053.67
  Q 679.02 1049.61 677.90 1045.62
  C 677.24 1043.30 677.84 1041.31 677.22 1039.09
  Q 676.49 1036.47 676.80 1033.71
  A 1.49 1.48 32.8 0 0 676.59 1032.76
  Q 674.34 1029.05 673.99 1026.29
  C 672.50 1014.51 662.69 1023.13 656.53 1016.63
  Q 654.10 1014.06 651.12 1012.15
  A 0.57 0.56 -51.3 0 0 650.42 1012.23
  L 646.89 1015.72
  Q 646.54 1016.07 646.07 1016.22
  C 642.55 1017.29 638.46 1019.75 634.67 1018.58
  Q 626.88 1016.17 618.72 1016.44
  C 614.47 1016.59 610.01 1013.90 606.27 1013.74
  C 600.25 1013.48 597.44 1010.76 599.09 1004.53
  C 599.87 1001.59 599.29 998.74 599.70 995.77
  C 600.53 989.76 600.32 983.62 600.73 977.55
  Q 600.87 975.43 600.12 973.07
  Q 598.75 968.78 598.60 964.31
  Q 598.52 962.13 597.64 960.41
  C 594.66 954.57 591.38 948.54 592.50 943.39
  Q 592.60 942.94 592.90 942.59
  L 599.44 935.16
  Q 599.82 934.73 599.39 934.34
  L 593.17 928.90
  A 0.59 0.55 -75.6 0 1 592.97 928.53
  Q 592.43 924.40 594.51 919.00
  Q 598.23 909.33 602.04 899.68
  Q 602.97 897.33 603.18 894.58
  C 603.69 887.80 606.76 880.57 610.39 871.00
  Q 610.57 870.53 610.36 870.06
  C 608.73 866.61 601.35 855.00 610.25 854.23
  C 611.92 854.09 613.53 855.12 615.23 854.95
  Q 621.54 854.30 628.85 851.62
  Q 629.32 851.45 629.49 850.98
  C 631.27 846.05 634.55 838.81 638.93 835.76
  A 1.59 1.50 26.3 0 1 639.81 835.49
  C 643.25 835.53 646.97 835.96 650.21 834.68
  C 655.86 832.44 658.82 828.42 665.55 831.80
  C 669.24 833.66 673.10 835.02 676.50 837.23
  C 683.02 841.46 688.93 846.11 696.86 848.29
  Q 697.33 848.41 697.79 848.28
  C 706.77 845.57 710.39 838.26 719.92 844.31
  C 723.21 846.39 727.88 847.41 730.79 844.54
  Q 734.77 840.61 739.01 836.95
  C 741.33 834.95 744.15 834.57 746.13 837.02
  C 747.85 839.15 747.23 842.96 747.26 845.77
  A 1.43 1.40 -26.4 0 1 746.95 846.65
  L 737.83 857.84
  Q 737.41 858.36 738.04 858.59
  C 745.15 861.17 755.04 860.03 762.64 860.00
  C 770.66 859.96 768.85 865.62 769.02 871.12
  Q 769.04 871.66 769.53 871.88
  C 774.36 874.00 778.30 876.61 775.44 882.80
  Q 775.23 883.25 774.82 883.54
  Q 773.64 884.38 774.08 885.86
  Q 774.23 886.39 774.74 886.59
  Q 778.40 888.02 783.00 886.87
  C 788.79 885.42 791.39 888.78 795.56 891.03
  Q 804.79 896.01 813.66 901.59
  Q 816.62 903.44 822.17 903.55
  C 824.52 903.60 825.82 904.68 827.82 905.65
  Q 828.26 905.86 828.50 906.29
  Q 828.97 907.13 829.90 907.26
  C 833.38 907.73 836.99 910.38 839.29 912.92
  Q 839.62 913.29 839.68 913.79
  C 840.04 917.23 839.58 923.63 837.64 926.58
  Q 837.36 927.02 837.41 927.54
  C 837.92 933.16 842.61 940.34 838.20 945.20
  C 836.21 947.39 831.23 948.25 828.29 949.73
  C 825.76 951.00 824.45 953.41 822.37 955.37
  C 818.12 959.38 817.60 963.44 816.41 968.82
  Q 816.30 969.32 815.94 969.68
  C 811.67 973.95 806.15 977.52 807.35 984.74
  Q 807.51 985.76 806.45 987.50
  C 800.94 996.51 795.93 1005.06 789.34 1013.39
  Q 787.77 1015.37 785.37 1016.70
  C 778.00 1020.75 771.14 1025.08 765.08 1030.97
  Q 760.53 1035.41 754.53 1037.96
  C 746.24 1041.50 748.21 1057.95 737.95 1060.03
  Q 737.48 1060.12 737.37 1060.58
  Z"
/>

<path id="MT" class="centro_oeste" stroke="#000" stroke-width="3" fill="#ffffff" d="
  M 514.08 773.60
  C 513.41 770.94 511.22 768.88 509.40 766.87
  C 505.53 762.60 507.32 758.49 512.90 757.89
  A 0.46 0.45 -21.4 0 0 513.22 757.17
  L 512.81 756.60
  Q 512.49 756.17 512.49 755.62
  C 512.51 750.41 513.54 743.54 509.70 738.86
  C 509.00 738.01 509.05 736.99 508.63 736.16
  C 505.17 729.20 503.70 725.50 507.42 718.08
  Q 507.67 717.58 507.42 717.09
  L 506.31 714.87
  Q 506.05 714.36 505.53 714.13
  C 503.14 713.06 499.74 712.64 498.28 710.57
  C 493.90 704.37 503.25 700.20 507.05 697.58
  A 1.19 1.18 -12.7 0 0 507.56 696.78
  Q 509.23 685.98 517.32 679.01
  C 520.83 675.98 525.55 663.82 525.59 659.29
  Q 525.63 655.97 523.53 651.51
  Q 520.35 644.72 516.50 638.28
  A 1.71 1.71 0.0 0 1 516.25 637.39
  L 516.25 633.15
  A 1.48 1.46 63.6 0 1 516.54 632.27
  L 520.65 626.56
  Q 520.99 626.10 521.11 625.54
  C 521.90 621.90 520.25 618.86 518.29 615.92
  Q 518.03 615.53 517.56 615.52
  C 512.99 615.45 508.25 616.60 504.53 612.90
  C 503.62 611.99 502.16 611.62 500.94 611.66
  Q 485.22 612.14 470.26 611.74
  A 4.10 4.10 0.0 0 1 466.27 607.67
  Q 466.20 600.52 466.27 592.57
  C 466.29 589.80 465.10 588.12 463.93 585.78
  C 462.73 583.36 463.17 580.10 463.65 577.55
  C 463.90 576.24 463.30 575.23 463.30 574.05
  Q 463.25 562.88 463.37 551.71
  C 463.44 546.06 460.87 543.16 464.47 537.52
  A 1.79 1.78 -28.9 0 0 464.75 536.56
  L 464.75 531.10
  Q 464.75 530.45 465.22 530.01
  L 467.10 528.25
  Q 467.36 528.00 467.73 527.99
  L 571.66 525.49
  Q 572.35 525.47 572.74 524.90
  Q 574.43 522.46 573.95 519.46
  A 1.62 1.61 -38.4 0 1 574.06 518.55
  Q 574.98 516.38 574.71 514.02
  A 0.96 0.94 57.7 0 1 574.84 513.41
  L 577.62 508.79
  A 1.04 0.98 -31.3 0 0 577.76 508.28
  C 577.72 505.02 578.17 502.33 576.93 499.13
  Q 574.19 492.08 579.92 486.87
  Q 580.27 486.55 580.41 486.09
  C 581.12 483.71 580.98 480.66 582.73 479.06
  C 585.17 476.83 588.31 477.35 590.70 479.50
  C 596.96 485.14 597.09 493.11 600.36 500.17
  C 601.83 503.33 603.52 505.67 603.98 509.28
  Q 604.57 513.89 605.93 520.27
  C 607.71 528.68 618.85 533.34 624.75 538.28
  C 626.44 539.70 628.35 540.38 629.82 541.91
  Q 631.10 543.25 632.43 544.56
  C 634.86 546.97 637.93 547.73 641.22 549.24
  Q 647.09 551.95 653.83 551.57
  C 656.78 551.40 659.42 552.07 662.50 552.27
  Q 704.92 555.01 864.19 565.63
  Q 866.84 565.81 868.10 566.67
  C 872.71 569.85 868.89 574.27 868.02 578.01
  C 867.64 579.65 866.52 579.88 866.17 581.35
  Q 865.62 583.63 864.61 585.72
  C 862.91 589.23 862.16 592.72 859.26 595.71
  Q 858.91 596.06 858.85 596.55
  C 858.41 599.72 857.27 602.33 857.30 605.57
  Q 857.39 613.75 854.66 621.44
  C 853.66 624.25 853.68 626.85 852.92 629.71
  A 0.91 0.90 -60.0 0 0 853.15 630.59
  Q 854.47 631.92 854.47 633.06
  Q 854.51 642.83 854.51 652.60
  C 854.50 654.53 855.69 655.92 855.75 657.77
  C 855.95 664.61 853.24 670.85 859.34 675.91
  A 1.82 1.80 12.4 0 1 859.94 676.84
  Q 861.20 681.45 857.62 684.56
  A 1.05 1.03 69.9 0 0 857.26 685.35
  L 857.25 693.58
  A 1.69 1.63 61.8 0 1 857.00 694.46
  C 854.47 698.56 849.66 704.53 849.02 709.22
  Q 848.27 714.60 847.86 720.00
  A 1.82 1.82 0.0 0 1 847.51 720.94
  Q 842.96 726.97 842.70 734.46
  C 842.50 740.21 840.62 745.47 839.05 750.87
  C 838.50 752.75 836.77 754.75 834.78 755.05
  C 825.44 756.48 819.23 761.71 815.98 770.38
  Q 814.11 775.35 812.05 780.26
  C 811.17 782.36 809.60 783.45 808.07 785.09
  A 1.45 1.44 13.2 0 1 807.45 785.47
  Q 802.52 786.91 797.79 788.87
  C 795.20 789.95 789.81 795.58 788.57 798.11
  Q 786.75 801.85 786.26 805.96
  C 785.30 813.97 776.67 818.06 771.35 821.17
  Q 770.92 821.42 770.71 821.87
  C 768.30 826.97 765.36 831.84 764.39 837.34
  C 763.65 841.51 762.55 846.02 763.96 850.18
  C 765.51 854.74 769.06 863.71 760.83 863.73
  Q 750.77 863.77 740.76 863.74
  C 736.77 863.74 734.13 860.25 734.71 856.48
  C 735.14 853.63 738.94 850.75 740.79 848.26
  C 743.44 844.71 745.32 843.16 744.04 838.03
  Q 743.95 837.66 743.67 837.91
  Q 737.80 843.22 731.75 848.38
  C 727.20 852.26 719.28 849.24 715.27 845.98
  A 1.22 1.19 61.7 0 0 714.41 845.71
  C 709.85 846.08 706.39 848.54 702.55 850.45
  C 695.94 853.73 689.11 850.24 683.80 846.69
  Q 672.59 839.20 661.43 834.12
  A 1.08 1.06 43.1 0 0 660.49 834.14
  Q 656.85 836.03 653.18 837.75
  C 649.92 839.28 644.75 838.33 641.11 838.67
  Q 640.60 838.72 640.27 839.13
  Q 636.01 844.61 633.64 850.95
  C 631.35 857.07 625.85 856.90 620.41 858.03
  C 613.43 859.47 607.86 858.44 603.54 852.64
  C 602.53 851.29 602.38 849.52 601.91 847.86
  Q 601.77 847.35 601.28 847.17
  Q 592.82 843.88 584.81 839.66
  C 581.54 837.94 578.33 836.22 578.41 832.76
  Q 578.50 829.15 577.89 827.43
  Q 577.73 826.97 577.77 826.48
  C 578.18 821.67 574.47 813.58 579.45 810.55
  A 1.37 1.36 81.2 0 0 580.09 809.67
  L 581.39 804.11
  A 1.52 1.52 0.0 0 0 579.91 802.25
  Q 551.41 802.25 522.87 802.25
  C 519.14 802.25 517.38 799.91 517.00 796.50
  C 516.41 791.28 515.84 786.58 515.32 780.86
  Q 514.99 777.18 514.08 773.60
  Z"
/>

<!-- Nordeste -->
<path id="AL" class="nordeste" stroke="#000" stroke-width="3" fill="#ffffff" d="
  M 1356.62 567.49
  C 1363.42 568.30 1368.17 563.91 1372.04 559.05
  A 1.64 1.61 10.2 0 1 1372.83 558.51
  C 1375.32 557.71 1377.11 556.34 1379.63 555.60
  Q 1382.65 554.71 1385.32 553.02
  A 1.64 1.63 -61.6 0 1 1386.22 552.75
  C 1391.40 552.71 1396.26 555.57 1401.31 556.86
  C 1406.89 558.29 1409.04 561.94 1405.05 567.08
  Q 1397.26 577.09 1387.65 585.35
  Q 1384.34 588.19 1381.66 591.46
  C 1376.61 597.62 1369.92 603.03 1365.58 609.57
  C 1360.47 617.28 1353.81 609.25 1349.27 606.01
  Q 1346.33 603.90 1344.06 601.13
  C 1337.39 592.99 1334.10 589.46 1325.68 585.70
  C 1320.88 583.55 1313.11 581.09 1307.67 578.10
  C 1305.90 577.13 1304.94 574.87 1303.37 573.73
  C 1301.68 572.51 1299.48 571.83 1298.27 570.28
  C 1295.79 567.09 1295.30 561.87 1300.28 560.56
  Q 1303.63 559.68 1306.81 558.31
  C 1310.53 556.71 1310.37 553.22 1313.38 551.49
  Q 1317.99 548.83 1320.97 553.57
  Q 1321.23 553.99 1321.73 554.07
  Q 1325.71 554.64 1329.33 556.46
  C 1330.22 556.92 1330.79 558.13 1331.93 558.78
  C 1335.81 561.02 1336.67 566.30 1342.10 566.44
  Q 1349.40 566.62 1356.62 567.49
  Z"
/>

<path id="BA" class="nordeste" stroke="#000" stroke-width="3" fill="#ffffff"  d="
  M 1173.19 784.56
  C 1168.24 778.67 1162.50 771.85 1154.75 773.43
  A 1.66 1.62 48.2 0 1 1153.88 773.37
  Q 1143.79 769.74 1134.16 765.15
  C 1130.89 763.59 1128.23 762.83 1125.87 759.87
  Q 1123.44 756.81 1119.38 751.09
  Q 1119.13 750.73 1118.69 750.74
  L 1111.72 750.78
  A 1.38 1.34 -63.9 0 0 1110.86 751.09
  C 1107.85 753.57 1105.63 756.71 1101.07 755.68
  Q 1098.74 755.15 1093.97 753.04
  C 1087.87 750.33 1089.89 746.67 1090.95 741.72
  Q 1091.05 741.25 1090.86 740.81
  C 1088.92 736.35 1082.62 735.61 1078.53 736.38
  C 1075.82 736.89 1070.81 736.93 1069.06 738.07
  C 1062.33 742.45 1053.98 749.08 1046.46 751.59
  C 1040.54 753.57 1039.65 758.78 1032.39 757.94
  Q 1031.87 757.88 1031.58 758.32
  C 1028.78 762.59 1027.41 766.34 1021.11 765.76
  Q 1019.93 765.65 1018.26 765.79
  C 1014.46 766.12 1012.69 760.04 1012.24 757.24
  Q 1012.09 756.30 1013.46 754.13
  Q 1015.40 751.08 1017.09 747.84
  Q 1017.32 747.40 1017.20 746.92
  Q 1016.61 744.58 1016.07 742.25
  C 1015.59 740.20 1016.06 737.80 1015.26 735.50
  A 1.45 1.40 -83.7 0 0 1014.71 734.79
  C 1001.76 726.14 1004.18 708.78 1011.89 697.41
  Q 1012.18 696.98 1011.88 696.56
  Q 1008.32 691.45 1011.44 685.95
  A 1.76 1.76 0.0 0 0 1011.14 683.82
  Q 1006.71 679.51 1010.34 674.09
  A 2.09 2.08 -51.2 0 0 1010.06 671.42
  C 1008.10 669.53 1004.41 666.58 1005.13 663.49
  C 1005.84 660.42 1005.00 653.48 1007.16 651.66
  Q 1009.99 649.26 1011.31 647.43
  Q 1011.64 646.98 1011.22 646.62
  C 1006.78 642.78 1011.02 641.03 1012.80 638.27
  Q 1013.06 637.86 1012.99 637.37
  C 1012.42 633.74 1003.78 633.84 1000.84 631.31
  C 995.23 626.49 1000.91 620.17 1003.26 615.35
  C 1004.22 613.38 1005.67 612.55 1006.96 610.81
  Q 1007.25 610.42 1007.26 609.92
  C 1007.55 601.19 1018.24 596.77 1027.42 591.41
  Q 1032.63 588.38 1037.35 590.12
  A 1.65 1.63 -6.1 0 1 1038.18 590.78
  C 1040.59 594.49 1041.34 599.15 1044.00 602.30
  C 1048.96 608.19 1054.53 610.38 1062.29 608.23
  A 1.65 1.64 14.2 0 0 1063.03 607.79
  C 1067.54 602.98 1075.72 597.14 1081.72 600.86
  A 1.37 1.34 -33.3 0 0 1082.68 601.05
  C 1084.66 600.72 1085.65 599.36 1086.91 598.46
  Q 1089.48 596.63 1091.87 594.58
  C 1096.26 590.82 1099.00 589.03 1099.64 584.07
  C 1100.13 580.29 1101.33 577.34 1101.57 573.74
  A 1.82 1.81 -57.4 0 0 1101.36 572.78
  C 1099.79 569.88 1099.78 567.28 1099.27 564.08
  C 1098.57 559.77 1102.24 558.76 1105.30 557.07
  C 1109.50 554.75 1113.12 558.29 1117.38 558.26
  C 1123.55 558.23 1129.54 556.88 1133.52 562.88
  A 0.81 0.80 73.0 0 0 1134.19 563.24
  L 1143.02 563.28
  Q 1143.55 563.28 1143.98 562.97
  C 1151.81 557.45 1156.80 556.34 1164.75 554.35
  C 1166.76 553.85 1169.75 554.28 1172.22 552.51
  Q 1172.62 552.22 1172.79 551.76
  L 1173.88 548.63
  Q 1174.05 548.15 1174.50 547.92
  C 1176.93 546.66 1179.90 546.30 1181.90 544.88
  Q 1185.06 542.63 1186.74 539.08
  C 1190.24 531.68 1197.18 536.79 1201.72 540.23
  C 1205.44 543.05 1206.43 546.68 1206.85 551.07
  Q 1206.89 551.59 1207.27 551.95
  Q 1213.12 557.51 1211.63 565.38
  Q 1211.55 565.78 1211.91 565.97
  C 1219.33 569.97 1223.68 560.29 1225.08 554.57
  A 1.04 1.04 0.0 0 1 1225.60 553.90
  Q 1229.66 551.71 1234.28 551.73
  Q 1234.80 551.73 1235.19 551.37
  C 1238.32 548.46 1241.43 544.08 1245.21 542.19
  Q 1248.11 540.75 1250.35 538.42
  C 1255.58 532.99 1262.70 534.13 1267.02 539.98
  A 1.58 1.58 0.0 0 0 1267.95 540.59
  Q 1274.52 542.10 1279.69 546.35
  Q 1280.11 546.69 1280.65 546.77
  Q 1283.18 547.11 1284.72 548.96
  Q 1285.03 549.34 1285.51 549.22
  Q 1290.74 547.91 1292.75 552.88
  Q 1292.96 553.39 1293.50 553.47
  C 1298.03 554.17 1298.34 559.53 1299.21 563.12
  C 1299.75 565.33 1299.24 567.90 1301.92 569.35
  C 1304.21 570.58 1305.04 571.30 1306.69 572.75
  A 1.35 1.30 16.5 0 1 1307.12 573.51
  Q 1307.79 577.22 1307.43 581.00
  Q 1307.39 581.50 1307.62 581.94
  Q 1310.65 587.74 1313.82 593.43
  C 1316.29 597.87 1312.06 611.30 1310.84 616.40
  C 1309.38 622.52 1304.26 621.70 1300.00 618.91
  A 0.71 0.69 -50.9 0 0 1299.11 619.01
  L 1296.65 621.52
  A 0.96 0.96 0.0 0 0 1296.42 622.43
  Q 1297.26 625.52 1298.18 626.59
  Q 1303.57 632.84 1304.25 640.23
  Q 1304.60 643.99 1306.18 646.36
  A 0.80 0.78 -23.3 0 0 1307.01 646.68
  Q 1308.76 646.29 1310.42 647.12
  Q 1310.86 647.35 1311.35 647.32
  C 1316.81 646.99 1324.68 647.33 1320.65 655.18
  Q 1310.65 674.72 1295.53 692.29
  C 1292.24 696.10 1288.93 700.61 1283.59 697.66
  Q 1281.41 696.46 1274.36 690.60
  A 0.48 0.47 37.1 0 0 1273.67 690.69
  L 1270.67 694.94
  Q 1270.30 695.45 1270.56 696.02
  Q 1271.97 699.13 1270.48 701.70
  Q 1266.46 708.63 1262.49 715.09
  A 8.37 8.27 -29.4 0 0 1261.26 719.40
  Q 1261.23 722.70 1261.24 726.45
  C 1261.25 730.76 1262.42 735.48 1262.52 740.15
  C 1262.65 745.52 1260.56 751.64 1259.25 756.94
  C 1257.55 763.86 1258.25 771.44 1258.25 778.52
  C 1258.25 780.11 1258.96 781.46 1258.97 782.95
  Q 1259.02 789.13 1259.01 795.32
  C 1259.00 801.00 1261.69 803.34 1259.38 809.53
  C 1256.15 818.19 1252.62 826.51 1250.42 835.49
  C 1248.66 842.64 1245.98 850.32 1245.99 857.71
  C 1246.00 866.60 1247.52 872.37 1239.07 878.05
  Q 1234.02 881.45 1230.99 886.81
  C 1226.83 894.20 1219.78 887.43 1215.31 884.63
  C 1210.70 881.75 1207.22 880.27 1208.59 874.82
  C 1209.55 871.03 1208.69 870.23 1205.68 868.08
  C 1202.37 865.73 1199.91 861.14 1197.70 857.76
  C 1194.53 852.92 1197.59 843.64 1199.05 840.06
  C 1200.91 835.52 1204.76 836.30 1208.65 836.25
  Q 1209.22 836.24 1209.23 835.67
  C 1209.36 830.12 1208.68 825.97 1214.49 823.19
  A 1.60 1.52 -85.8 0 0 1215.17 822.57
  Q 1216.89 819.58 1220.16 818.25
  A 1.08 1.06 -87.4 0 0 1220.70 817.75
  L 1224.20 810.60
  A 1.23 1.21 30.4 0 0 1223.79 809.06
  C 1219.51 806.13 1215.42 802.25 1210.73 800.57
  Q 1201.38 797.23 1191.79 794.74
  A 1.29 1.24 36.6 0 0 1190.87 794.86
  C 1187.81 796.63 1184.95 799.07 1181.14 796.90
  Q 1177.19 794.65 1175.21 790.69
  C 1174.23 788.73 1174.92 786.62 1173.19 784.56
  Z"
/>

<path id="CE" class="nordeste" stroke="#000" stroke-width="3" fill="#ffffff" d="
  M 1214.51 466.05
  C 1212.14 463.29 1211.43 458.51 1210.85 454.38
  C 1209.83 447.17 1207.29 439.76 1207.29 432.74
  C 1207.29 426.84 1207.42 423.11 1204.78 417.77
  C 1201.96 412.04 1201.83 406.70 1200.17 401.03
  C 1199.03 397.16 1199.19 393.06 1197.69 389.04
  A 1.29 1.26 47.4 0 1 1197.72 388.08
  C 1198.75 385.80 1199.31 384.22 1201.02 382.02
  C 1204.69 377.28 1198.94 369.31 1197.54 365.02
  Q 1197.39 364.55 1197.05 364.19
  C 1194.86 361.86 1192.38 349.65 1191.01 344.41
  C 1189.70 339.36 1193.01 337.62 1195.55 334.22
  C 1197.99 330.97 1199.73 327.67 1204.18 327.15
  C 1216.45 325.72 1230.65 324.32 1243.99 327.23
  Q 1245.16 327.49 1246.63 328.41
  C 1267.19 341.30 1286.31 354.32 1304.84 370.66
  Q 1307.75 373.23 1309.44 375.56
  Q 1314.31 382.30 1321.04 387.15
  C 1324.07 389.34 1325.26 391.73 1326.83 394.87
  Q 1327.05 395.32 1327.51 395.54
  Q 1331.66 397.64 1335.96 399.27
  C 1341.35 401.32 1340.91 406.59 1335.55 408.16
  Q 1325.31 411.15 1320.87 420.36
  Q 1315.84 430.80 1310.90 437.15
  C 1308.01 440.86 1305.91 453.07 1297.61 449.34
  Q 1297.15 449.14 1296.85 449.54
  L 1293.37 454.25
  A 1.00 1.00 0.0 0 0 1293.19 455.03
  C 1294.57 462.36 1290.97 467.09 1288.57 473.21
  C 1287.52 475.88 1287.20 480.71 1288.30 483.39
  C 1291.94 492.21 1294.06 502.87 1282.15 505.95
  Q 1281.67 506.08 1281.34 506.46
  C 1278.58 509.63 1275.44 513.54 1271.54 510.18
  Q 1260.21 500.38 1249.27 494.02
  C 1245.97 492.10 1242.21 493.50 1239.45 493.51
  Q 1230.12 493.53 1220.82 493.44
  C 1212.18 493.35 1218.82 479.39 1221.64 476.39
  Q 1223.05 474.90 1223.25 472.56
  Q 1223.29 472.06 1222.90 471.74
  C 1220.33 469.67 1216.51 468.38 1214.51 466.05
  Z"
/>

<path id="MA" class="nordeste" stroke="#000" stroke-width="3" fill="#ffffff" d="
  M 1001.32 559.98
  Q 998.04 558.15 994.95 556.04
  C 990.38 552.94 991.50 550.07 991.50 545.20
  A 0.50 0.50 0.0 0 0 990.95 544.70
  C 986.93 545.14 981.95 543.72 983.80 538.44
  C 984.99 535.05 988.98 534.00 989.75 529.70
  C 991.44 520.16 993.80 519.54 1002.17 516.17
  Q 1002.70 515.95 1002.86 515.40
  L 1005.46 506.30
  Q 1005.63 505.72 1005.20 505.30
  L 1002.26 502.44
  Q 1001.91 502.09 1001.42 502.16
  Q 994.78 503.00 988.50 504.95
  C 986.90 505.44 984.62 504.45 983.41 503.08
  C 978.63 497.66 974.79 491.47 969.75 486.27
  Q 969.38 485.89 969.34 485.36
  L 968.89 479.63
  A 1.41 1.41 0.0 0 0 967.51 478.33
  C 962.76 478.22 961.07 473.35 963.86 469.99
  C 964.80 468.86 966.27 468.28 967.71 467.57
  A 0.98 0.97 -11.4 0 0 968.25 466.77
  Q 968.83 457.24 972.16 448.38
  C 972.72 446.87 972.30 445.42 972.72 443.89
  C 973.97 439.32 972.49 435.50 972.50 431.51
  C 972.52 427.54 973.14 421.94 971.59 418.56
  C 969.82 414.70 966.74 413.97 964.01 412.12
  C 960.46 409.71 958.80 409.34 956.47 405.44
  C 954.31 401.80 950.89 405.29 947.71 404.06
  C 943.89 402.58 935.29 398.73 941.16 393.41
  Q 943.80 391.02 953.64 383.64
  C 957.73 380.57 959.18 377.54 965.22 378.40
  A 1.00 0.99 25.4 0 0 966.08 378.10
  Q 970.16 373.81 973.95 369.33
  C 976.20 366.67 976.57 364.19 977.62 360.99
  Q 977.80 360.45 978.26 360.12
  L 986.51 354.20
  A 0.98 0.97 76.1 0 0 986.92 353.51
  C 987.36 349.49 986.50 343.76 989.30 340.55
  C 993.99 335.20 1002.12 326.74 1002.73 319.98
  Q 1003.01 316.83 1003.40 313.65
  Q 1003.46 313.11 1003.84 312.73
  L 1009.96 306.66
  Q 1010.29 306.32 1010.34 305.85
  C 1010.89 299.76 1012.01 297.25 1015.87 292.80
  C 1019.48 288.63 1020.16 284.71 1017.62 279.87
  A 1.47 1.43 -55.1 0 1 1017.47 278.95
  C 1018.20 274.32 1020.99 270.90 1021.34 266.27
  C 1022.17 255.23 1030.33 258.40 1035.80 263.21
  Q 1036.18 263.54 1036.68 263.63
  C 1043.34 264.87 1046.31 268.83 1050.35 273.15
  A 1.19 1.18 -33.0 0 0 1051.70 273.43
  Q 1055.16 271.89 1058.98 270.69
  C 1062.68 269.53 1064.14 271.88 1066.32 273.88
  Q 1066.64 274.17 1067.08 274.26
  Q 1069.46 274.75 1070.66 276.91
  Q 1070.93 277.38 1071.42 277.60
  C 1074.39 278.89 1076.40 283.20 1078.75 285.59
  C 1081.62 288.48 1082.29 291.32 1082.91 295.07
  Q 1082.98 295.55 1083.31 295.90
  Q 1086.27 299.09 1085.48 303.09
  C 1085.05 305.29 1082.77 306.60 1081.79 308.55
  Q 1079.76 312.57 1076.43 320.38
  C 1075.16 323.34 1075.42 325.96 1075.53 329.03
  Q 1075.55 329.69 1076.13 329.38
  C 1081.81 326.36 1087.50 322.67 1093.43 320.31
  C 1099.39 317.95 1099.14 312.01 1107.29 311.15
  C 1110.02 310.86 1112.50 310.19 1115.16 310.22
  C 1117.33 310.24 1118.48 309.54 1118.68 307.39
  Q 1118.73 306.86 1119.17 306.55
  C 1122.12 304.51 1125.09 304.91 1128.46 306.46
  Q 1139.41 311.49 1150.27 316.73
  C 1156.94 319.94 1164.54 321.04 1171.70 322.74
  Q 1172.20 322.86 1172.67 322.65
  C 1176.10 321.13 1179.62 320.06 1181.48 324.30
  C 1184.33 330.78 1174.08 337.27 1170.50 340.88
  C 1168.10 343.29 1165.94 346.66 1162.04 346.46
  C 1157.14 346.20 1149.95 348.26 1149.52 354.26
  C 1149.15 359.43 1146.77 360.88 1143.57 364.38
  C 1142.42 365.64 1141.80 367.58 1140.71 369.06
  C 1139.10 371.25 1135.89 371.53 1137.90 375.50
  C 1141.01 381.67 1136.20 388.09 1139.53 395.30
  Q 1142.30 401.30 1141.22 409.00
  C 1140.78 412.14 1136.84 417.25 1134.93 419.91
  C 1128.38 429.02 1130.93 438.20 1138.68 445.30
  C 1140.68 447.13 1140.10 455.00 1139.91 456.44
  C 1138.96 463.72 1131.58 467.42 1124.60 466.50
  C 1121.57 466.10 1118.03 467.98 1115.73 467.02
  C 1111.20 465.15 1109.68 462.25 1103.92 462.88
  C 1100.63 463.25 1094.20 466.73 1091.48 469.06
  C 1085.53 474.16 1075.02 484.41 1067.40 485.86
  Q 1066.91 485.96 1066.55 486.29
  C 1061.51 490.96 1051.45 488.62 1046.09 492.98
  C 1040.25 497.73 1042.39 505.78 1039.42 511.56
  Q 1033.15 523.80 1026.70 535.94
  C 1024.31 540.44 1026.30 542.53 1026.23 546.85
  Q 1026.18 549.94 1026.76 552.95
  Q 1026.86 553.45 1027.22 553.81
  C 1029.60 556.09 1030.19 557.61 1029.70 561.05
  C 1028.52 569.31 1028.38 578.28 1024.35 585.68
  C 1022.23 589.57 1019.11 588.33 1016.13 586.53
  C 1012.38 584.26 1008.63 586.14 1006.03 581.47
  Q 1002.73 575.56 999.34 569.75
  C 997.14 565.98 997.97 563.04 1001.35 560.62
  Q 1001.84 560.27 1001.32 559.98
  Z"
/>

<path id="PB" class="nordeste" stroke="#000" stroke-width="3" fill="#ffffff" d="
  M 1337.77 522.09
  C 1333.11 520.71 1334.55 515.15 1337.55 512.87
  A 0.52 0.49 -10.1 0 0 1337.74 512.61
  L 1341.73 501.86
  Q 1341.88 501.47 1341.65 501.11
  C 1335.96 492.19 1333.06 498.71 1327.42 501.45
  C 1324.66 502.79 1322.35 503.33 1320.01 505.54
  C 1317.44 507.99 1315.06 510.32 1311.34 510.89
  Q 1307.16 511.53 1302.99 512.14
  Q 1299.80 512.60 1297.87 509.68
  A 0.69 0.69 0.0 0 0 1297.03 509.43
  C 1288.45 513.11 1283.47 503.88 1288.17 497.15
  C 1290.35 494.04 1287.60 491.19 1286.81 488.21
  Q 1286.16 485.72 1285.60 484.03
  Q 1283.20 476.66 1286.91 469.94
  C 1290.17 464.03 1289.49 456.32 1298.84 459.62
  C 1306.20 462.22 1310.74 462.07 1317.54 457.99
  A 1.30 1.28 -6.7 0 0 1318.11 457.28
  C 1320.47 449.96 1330.66 447.75 1337.24 447.75
  C 1340.15 447.75 1342.54 450.37 1341.71 453.31
  C 1341.14 455.32 1337.89 458.02 1336.28 459.58
  A 1.46 1.42 72.5 0 0 1335.86 460.41
  Q 1335.28 465.10 1331.98 468.44
  A 1.20 1.20 0.0 0 0 1332.72 470.48
  Q 1338.22 471.04 1340.88 475.76
  Q 1341.18 476.30 1341.74 476.02
  C 1350.75 471.48 1355.65 473.24 1358.58 482.79
  A 0.71 0.70 80.3 0 0 1359.28 483.29
  Q 1361.60 483.20 1363.39 481.72
  A 1.01 1.00 66.7 0 0 1363.74 480.82
  C 1362.77 473.47 1364.95 469.92 1366.99 464.23
  A 4.21 4.21 0.0 0 1 1372.22 461.64
  C 1376.75 463.07 1380.98 465.02 1385.78 465.19
  C 1390.57 465.35 1394.98 464.83 1399.61 466.19
  C 1403.44 467.32 1408.26 469.58 1412.23 469.39
  C 1419.50 469.03 1418.84 474.29 1420.20 479.25
  C 1421.35 483.46 1422.95 488.17 1422.95 492.54
  C 1422.94 496.56 1425.19 504.53 1422.89 507.63
  C 1421.43 509.60 1418.44 509.70 1416.62 508.30
  C 1411.30 504.21 1408.18 506.49 1402.36 506.50
  A 1.36 1.36 0.0 0 0 1401.02 507.65
  C 1400.57 510.63 1400.69 514.75 1396.56 515.13
  Q 1389.74 515.74 1384.51 518.51
  A 2.04 2.04 0.0 0 1 1383.55 518.75
  C 1378.61 518.74 1374.00 517.67 1369.00 518.06
  C 1366.79 518.23 1366.57 519.81 1364.75 520.39
  Q 1358.73 522.32 1356.18 527.92
  C 1354.39 531.85 1350.05 533.85 1345.88 532.91
  Q 1338.47 531.25 1338.32 522.81
  A 0.77 0.76 7.8 0 0 1337.77 522.09
  Z"
/>

<path id="PE" class="nordeste" stroke="#000" stroke-width="3" fill="#ffffff" d="
  M 1301.89 509.89
  C 1306.52 507.54 1311.23 510.18 1314.85 506.27
  Q 1318.89 501.88 1324.39 499.71
  Q 1326.49 498.88 1328.09 497.51
  C 1333.48 492.87 1340.81 492.21 1344.05 499.75
  C 1345.16 502.35 1341.92 509.72 1339.70 514.76
  Q 1339.48 515.24 1339.08 515.58
  Q 1337.09 517.22 1336.25 519.66
  Q 1336.06 520.22 1336.64 520.24
  C 1341.22 520.42 1341.39 524.57 1342.20 527.96
  A 1.31 1.30 8.6 0 0 1342.80 528.77
  Q 1347.28 531.40 1352.14 529.12
  Q 1352.49 528.95 1352.69 528.62
  C 1355.99 523.17 1356.73 519.65 1363.71 517.94
  Q 1364.19 517.82 1364.52 517.44
  C 1368.43 512.81 1375.71 515.89 1381.04 515.77
  Q 1382.86 515.73 1385.41 514.65
  Q 1390.89 512.35 1396.56 512.32
  A 1.68 1.68 0.0 0 0 1398.23 510.62
  C 1398.15 501.67 1405.84 503.57 1411.54 503.53
  C 1416.99 503.49 1423.68 508.89 1422.82 514.80
  C 1421.30 525.23 1417.69 535.74 1414.70 545.85
  C 1413.48 550.01 1411.43 553.91 1409.78 558.03
  C 1407.36 564.06 1393.56 557.14 1389.29 555.52
  A 2.38 2.34 -45.5 0 0 1387.55 555.55
  L 1374.83 560.84
  Q 1374.38 561.03 1374.07 561.39
  Q 1370.22 565.89 1365.10 568.74
  C 1361.34 570.82 1357.17 570.57 1353.05 569.99
  C 1345.86 568.97 1337.69 570.98 1333.03 564.07
  C 1329.97 559.53 1325.80 557.38 1320.40 556.67
  A 1.44 1.40 72.4 0 1 1319.54 556.21
  L 1317.26 553.58
  A 1.82 1.82 0.0 0 0 1314.19 554.10
  C 1311.56 560.76 1301.75 565.75 1295.71 561.48
  A 1.16 1.14 -74.2 0 1 1295.23 560.60
  C 1294.93 554.90 1289.43 556.59 1289.20 551.25
  Q 1289.18 550.69 1288.70 550.98
  C 1286.57 552.28 1284.88 552.23 1282.58 551.02
  C 1280.21 549.77 1275.93 548.38 1274.34 546.35
  Q 1274.01 545.93 1273.51 545.75
  L 1266.27 543.29
  A 1.06 0.99 75.7 0 1 1265.85 543.02
  C 1261.63 538.51 1257.50 535.29 1252.05 540.94
  C 1249.78 543.29 1248.45 543.91 1245.87 545.22
  C 1242.61 546.87 1239.13 552.10 1235.91 554.62
  Q 1235.53 554.91 1235.05 554.92
  L 1227.93 555.04
  Q 1227.38 555.05 1227.31 555.60
  C 1226.26 563.76 1220.81 573.25 1211.20 568.97
  C 1209.33 568.14 1208.79 566.65 1208.72 564.76
  Q 1208.70 564.25 1208.95 563.82
  C 1210.26 561.57 1207.57 557.41 1206.05 555.65
  Q 1203.22 552.38 1203.49 547.83
  Q 1203.52 547.32 1203.25 546.89
  C 1201.36 543.73 1199.49 542.36 1196.30 540.53
  C 1192.27 538.22 1192.73 533.45 1196.52 530.99
  C 1201.57 527.72 1207.78 524.49 1212.24 520.54
  C 1215.81 517.37 1217.86 515.81 1217.03 510.56
  A 1.48 1.48 0.0 0 0 1216.57 509.70
  Q 1213.02 506.46 1215.75 502.51
  Q 1215.98 502.17 1215.92 501.76
  C 1215.51 499.12 1213.36 495.95 1213.94 493.71
  C 1215.56 487.41 1231.90 491.91 1237.30 491.18
  C 1242.62 490.47 1248.76 489.28 1253.17 492.80
  Q 1256.11 495.13 1257.18 495.75
  Q 1264.15 499.77 1265.74 501.52
  Q 1269.21 505.35 1273.17 508.30
  A 2.16 2.16 0.0 0 0 1275.95 508.14
  C 1278.03 506.17 1280.17 503.44 1282.97 502.88
  Q 1288.50 501.77 1290.86 507.50
  Q 1291.07 508.01 1291.59 507.85
  C 1294.87 506.80 1299.42 506.58 1301.26 509.71
  Q 1301.48 510.10 1301.89 509.89
  Z"
/>

<path id="PI" class="nordeste" stroke="#000" stroke-width="3" fill="#ffffff" d="
  M 1102.33 562.02
  Q 1102.43 565.91 1103.61 569.57
  C 1105.42 575.21 1103.58 577.81 1102.97 583.09
  C 1101.96 591.92 1095.37 596.16 1087.67 602.14
  C 1081.69 606.80 1080.09 601.26 1077.29 602.26
  Q 1070.34 604.72 1064.55 610.53
  A 1.77 1.70 14.3 0 1 1063.76 610.98
  C 1061.06 611.64 1058.95 612.49 1056.10 612.00
  Q 1053.98 611.63 1051.86 611.34
  C 1046.94 610.67 1042.87 606.78 1040.38 602.74
  C 1038.58 599.82 1037.82 592.47 1033.61 592.01
  C 1029.25 591.53 1022.33 591.14 1021.79 585.50
  A 1.68 1.62 56.5 0 1 1021.96 584.58
  C 1025.47 577.56 1025.61 569.01 1026.72 561.35
  C 1027.28 557.54 1025.04 556.75 1024.26 553.50
  Q 1023.22 549.13 1023.18 544.63
  C 1023.15 541.23 1021.68 538.84 1023.78 535.02
  Q 1028.41 526.60 1036.68 510.60
  Q 1037.64 508.73 1037.98 506.10
  C 1038.75 500.02 1039.71 493.22 1045.63 489.82
  Q 1047.29 488.87 1052.97 487.92
  Q 1058.06 487.06 1062.85 485.11
  C 1065.13 484.19 1065.80 482.62 1069.26 482.54
  C 1070.72 482.50 1072.40 480.69 1073.21 480.12
  Q 1078.59 476.27 1083.51 471.87
  C 1088.99 466.96 1093.51 464.11 1099.56 461.06
  C 1105.87 457.87 1111.23 461.14 1116.48 464.27
  Q 1116.90 464.52 1117.37 464.41
  C 1125.94 462.41 1138.71 465.97 1137.82 451.30
  C 1137.49 445.88 1133.63 445.40 1131.55 441.31
  C 1130.21 438.66 1128.36 435.94 1128.29 432.96
  Q 1128.10 424.67 1133.12 417.79
  C 1135.79 414.12 1140.45 407.85 1138.65 403.74
  Q 1138.45 403.28 1138.49 402.79
  Q 1138.62 400.91 1137.44 398.05
  Q 1134.40 390.67 1135.56 384.52
  C 1136.13 381.52 1136.69 380.41 1135.53 377.33
  Q 1133.68 372.43 1137.00 368.61
  C 1140.18 364.94 1141.90 361.11 1145.73 357.91
  Q 1146.12 357.59 1146.17 357.09
  C 1146.76 352.05 1147.46 347.77 1152.62 345.45
  Q 1157.55 343.23 1163.07 343.46
  Q 1163.57 343.49 1163.92 343.12
  Q 1169.13 337.64 1175.10 333.07
  C 1178.94 330.14 1179.22 321.82 1185.82 324.47
  C 1191.56 326.78 1201.21 328.04 1198.76 335.01
  A 1.89 1.81 82.4 0 1 1198.13 335.87
  C 1195.13 338.07 1193.04 341.09 1194.12 345.01
  C 1195.99 351.84 1197.32 358.57 1200.55 365.03
  Q 1204.00 371.94 1205.18 375.90
  C 1206.45 380.18 1202.00 384.56 1200.78 388.50
  A 1.57 1.55 44.7 0 0 1200.79 389.46
  Q 1202.06 393.26 1202.23 397.16
  C 1202.41 401.46 1204.51 405.38 1205.15 409.73
  C 1205.95 415.14 1209.27 418.99 1209.44 424.40
  C 1209.51 426.47 1210.24 428.28 1210.23 430.22
  C 1210.21 434.42 1210.01 437.80 1211.17 442.04
  Q 1213.12 449.17 1214.66 459.57
  C 1215.86 467.71 1224.32 465.69 1226.18 472.99
  A 1.47 1.45 -39.7 0 1 1226.08 473.98
  C 1224.59 477.06 1222.14 479.17 1221.11 482.36
  C 1219.70 486.70 1217.04 489.77 1216.12 493.49
  Q 1216.00 493.96 1216.23 494.40
  C 1217.78 497.36 1220.18 501.70 1217.34 504.96
  Q 1217.02 505.34 1217.28 505.76
  Q 1223.73 516.27 1213.74 523.27
  Q 1207.95 527.33 1198.82 532.82
  C 1196.47 534.24 1194.26 536.94 1190.89 537.93
  Q 1190.40 538.07 1190.17 538.53
  C 1187.30 544.37 1184.89 548.29 1178.19 550.02
  Q 1177.68 550.15 1177.24 549.87
  Q 1176.49 549.41 1176.31 550.24
  C 1175.24 554.97 1173.11 555.84 1168.37 556.77
  C 1160.30 558.35 1153.32 560.18 1146.85 564.87
  C 1143.38 567.38 1136.51 566.74 1132.50 566.25
  A 1.17 1.13 -18.4 0 1 1131.85 565.94
  L 1126.77 561.03
  A 1.03 1.03 0.0 0 0 1126.03 560.74
  Q 1120.67 560.78 1115.40 560.74
  C 1112.93 560.73 1110.77 559.71 1108.25 559.41
  Q 1107.68 559.34 1107.24 559.69
  Q 1105.27 561.24 1102.78 561.51
  Q 1102.32 561.56 1102.33 562.02
  Z"
/>

<path id="RN" class="nordeste" stroke="#000" stroke-width="3" fill="#ffffff" d="
  M 1338.23 450.46
  C 1332.09 451.43 1327.44 451.41 1322.47 455.73
  Q 1322.09 456.07 1321.92 456.55
  C 1320.00 462.17 1315.57 462.61 1310.62 464.13
  C 1305.90 465.57 1299.15 462.98 1294.82 461.04
  C 1290.96 459.30 1289.00 456.35 1291.05 452.35
  C 1292.83 448.87 1295.24 446.05 1299.55 446.97
  Q 1300.01 447.06 1300.44 446.87
  Q 1303.84 445.31 1305.11 442.33
  Q 1308.17 435.14 1312.16 429.97
  C 1317.62 422.90 1318.69 414.01 1326.67 408.76
  C 1330.97 405.93 1340.83 401.55 1343.69 408.70
  Q 1343.88 409.17 1344.39 409.19
  C 1351.66 409.40 1354.51 408.68 1359.23 415.07
  Q 1359.53 415.47 1360.02 415.52
  Q 1368.42 416.41 1376.79 417.23
  Q 1378.82 417.43 1381.49 416.81
  C 1388.62 415.15 1398.55 419.37 1405.37 423.20
  A 1.43 1.41 -87.0 0 1 1405.99 423.90
  C 1407.81 428.46 1410.33 432.63 1411.38 437.37
  Q 1414.45 451.18 1417.11 465.07
  C 1418.05 469.98 1414.23 473.44 1409.47 472.54
  C 1405.46 471.79 1398.58 468.21 1392.95 468.29
  C 1388.69 468.34 1384.96 468.95 1380.80 467.66
  Q 1375.68 466.08 1370.67 464.21
  A 0.61 0.61 0.0 0 0 1369.87 464.62
  C 1368.93 468.07 1366.93 471.22 1366.78 474.63
  C 1366.65 477.37 1367.53 482.81 1364.61 484.52
  Q 1360.46 486.94 1356.27 484.18
  A 1.44 1.44 0.0 0 1 1355.64 483.28
  Q 1354.91 480.14 1352.91 477.68
  Q 1352.57 477.26 1352.02 477.16
  C 1346.33 476.13 1340.32 481.78 1336.35 475.19
  Q 1336.10 474.77 1335.63 474.62
  C 1332.35 473.57 1327.56 471.29 1330.01 466.77
  C 1333.05 461.16 1332.74 456.42 1339.04 452.73
  A 1.23 1.23 0.0 0 0 1338.23 450.46
  Z"
/>

<path id="SE" class="nordeste" stroke="#000" stroke-width="3" fill="#ffffff" d="
  M 1305.18 618.47
  A 1.38 1.38 0.0 0 0 1307.37 617.68
  L 1311.97 597.03
  A 1.04 1.04 0.0 0 0 1311.86 596.31
  Q 1307.61 588.94 1305.47 584.80
  C 1303.33 580.65 1304.15 574.38 1310.48 576.60
  C 1318.77 579.51 1330.87 583.43 1337.25 589.54
  C 1341.50 593.62 1345.06 599.36 1349.73 602.66
  Q 1353.40 605.27 1356.89 608.14
  C 1359.58 610.36 1360.11 612.81 1358.37 615.75
  A 1.59 1.54 -85.7 0 1 1357.65 616.39
  C 1354.99 617.53 1352.13 617.89 1349.78 619.39
  C 1344.98 622.46 1336.52 627.27 1333.68 632.17
  Q 1329.13 640.02 1324.70 647.94
  C 1322.17 652.46 1310.86 649.76 1306.57 649.71
  C 1301.57 649.66 1301.01 638.59 1299.83 635.04
  C 1298.41 630.81 1290.33 624.08 1294.64 619.20
  Q 1299.31 613.91 1305.18 618.47
  Z"
/>

<!-- Norte -->
<path id="AC" class="norte" stroke="#000" stroke-width="3" fill="#ffffff" d="
  M 143.08 571.36
  Q 133.22 579.98 123.47 588.72
  Q 121.33 590.65 117.30 590.88
  Q 107.46 591.43 97.62 592.05
  C 94.92 592.22 92.35 593.17 89.24 591.99
  A 0.59 0.55 -8.5 0 1 89.02 591.84
  L 85.12 586.99
  Q 84.78 586.58 84.68 586.07
  Q 83.50 580.28 79.52 575.83
  Q 79.17 575.43 78.63 575.41
  C 76.09 575.29 74.12 574.57 71.43 574.56
  C 69.26 574.56 67.52 573.74 65.52 573.75
  C 61.03 573.76 53.68 575.12 54.81 567.76
  Q 55.01 566.42 56.95 563.63
  Q 57.24 563.21 57.18 562.72
  C 56.46 557.19 49.63 549.01 46.12 546.87
  C 44.30 545.76 43.75 545.71 43.33 543.35
  C 42.70 539.86 40.31 539.66 38.40 537.60
  C 34.36 533.21 34.97 527.62 29.89 524.20
  C 26.70 522.04 25.67 520.07 26.88 516.40
  A 0.66 0.65 20.9 0 0 26.52 515.60
  C 21.18 513.25 16.58 507.61 20.33 502.15
  C 21.45 500.51 23.88 499.74 25.54 498.44
  Q 25.93 498.14 26.06 497.67
  C 27.18 493.87 27.69 490.74 32.75 492.50
  C 46.13 497.16 59.94 502.93 73.84 505.62
  Q 111.12 512.85 148.42 519.98
  Q 152.78 520.82 156.66 522.61
  C 177.65 532.26 194.84 542.43 214.69 550.39
  Q 245.16 562.60 275.70 574.64
  C 279.85 576.27 281.17 579.54 278.08 583.03
  C 273.17 588.56 268.05 595.64 262.84 595.48
  Q 262.35 595.46 261.94 595.73
  Q 257.48 598.57 253.28 601.74
  C 248.43 605.40 249.02 611.42 241.05 609.52
  Q 237.88 608.77 234.72 609.71
  A 1.14 1.12 3.3 0 0 234.00 610.34
  C 232.11 614.67 228.97 620.76 224.46 622.73
  C 221.32 624.10 216.40 626.61 213.67 625.87
  Q 207.98 624.31 202.14 623.86
  C 191.74 623.08 184.21 622.22 175.25 622.22
  C 173.71 622.22 172.28 621.26 170.67 622.05
  Q 161.30 626.64 156.72 628.44
  C 153.08 629.87 148.48 625.13 145.24 623.45
  Q 144.80 623.22 144.59 622.76
  Q 143.17 619.54 143.10 617.43
  Q 142.63 602.17 141.62 586.93
  C 141.41 583.61 142.29 581.41 143.43 578.45
  Q 144.08 576.76 143.55 571.54
  Q 143.49 571.00 143.08 571.36
  Z"
/>

<path id="AM" class="norte" stroke="#000" stroke-width="3" fill="#ffffff" d="
  M 155.78 379.73
  Q 163.90 329.37 172.02 279.00
  Q 172.69 274.85 175.30 269.59
  A 1.39 1.37 -39.2 0 0 175.40 268.68
  C 173.18 259.04 166.03 255.18 166.03 244.51
  Q 166.03 242.92 165.11 240.89
  Q 164.88 240.38 164.41 240.09
  L 152.76 232.66
  A 5.43 5.42 -73.9 0 1 150.25 228.10
  Q 150.24 217.21 150.26 205.75
  C 150.27 201.83 157.57 199.87 160.54 199.05
  C 167.01 197.26 170.79 194.65 177.57 198.58
  A 1.17 1.10 -28.4 0 0 178.14 198.73
  L 181.49 198.76
  A 0.50 0.49 -88.8 0 0 181.98 198.28
  C 182.14 194.32 180.90 191.34 179.99 187.68
  A 3.22 3.21 -5.5 0 0 177.03 185.24
  Q 170.21 184.90 162.98 184.98
  C 158.27 185.02 156.10 183.26 156.03 178.60
  Q 155.95 172.08 156.02 165.58
  C 156.09 160.17 160.71 159.79 164.63 158.74
  C 167.57 157.95 170.38 159.01 173.25 158.86
  Q 192.13 157.88 211.01 157.32
  C 217.57 157.13 211.99 148.14 219.52 148.75
  C 222.58 148.99 224.61 152.01 226.28 154.41
  C 228.19 157.16 229.84 156.27 231.37 153.92
  C 234.72 148.82 237.85 142.99 243.66 140.74
  A 1.54 1.49 42.9 0 1 244.70 140.72
  C 249.52 142.36 254.22 150.15 258.00 154.26
  C 260.98 157.50 258.92 168.75 258.17 173.39
  A 1.16 1.15 -84.8 0 0 259.28 174.73
  C 263.74 174.83 267.12 173.96 271.12 177.63
  Q 277.24 183.24 283.24 188.50
  A 6.07 6.06 65.9 0 0 287.15 190.00
  Q 290.64 190.04 294.99 189.90
  C 300.01 189.73 301.83 180.42 309.68 180.53
  C 315.04 180.61 318.18 185.12 315.86 190.28
  A 0.52 0.52 0.0 0 0 316.64 190.92
  C 318.55 189.54 319.42 188.91 320.49 186.57
  Q 321.87 183.55 325.24 182.52
  Q 325.68 182.39 325.85 181.96
  L 327.73 177.22
  A 1.53 1.52 82.2 0 1 328.26 176.52
  Q 330.34 174.98 332.56 173.70
  C 335.04 172.28 337.09 169.75 340.95 169.68
  C 345.98 169.59 352.04 158.43 357.68 164.01
  Q 358.16 164.48 358.62 164.00
  L 366.16 156.20
  A 0.88 0.87 68.9 0 0 366.40 155.65
  C 366.79 150.28 365.84 145.18 372.57 143.61
  C 379.09 142.08 384.69 139.69 390.26 135.99
  Q 394.50 133.17 399.77 134.75
  A 1.92 1.82 -12.7 0 1 400.59 135.24
  C 403.74 138.50 407.35 138.66 411.50 140.04
  C 417.35 141.99 419.92 142.88 418.07 149.91
  C 417.05 153.79 416.51 157.45 419.96 160.29
  Q 420.35 160.61 420.49 161.10
  Q 423.04 170.09 425.95 178.98
  C 427.19 182.78 427.18 185.62 425.32 188.90
  A 0.95 0.93 46.5 0 0 425.31 189.80
  Q 427.72 194.30 426.77 197.52
  Q 423.82 207.49 424.57 213.75
  Q 425.08 217.93 429.22 222.67
  C 431.19 224.94 431.35 228.26 432.65 231.12
  C 434.74 235.75 430.21 237.44 430.50 241.73
  Q 430.70 244.70 432.80 246.21
  Q 443.58 253.97 448.90 259.34
  Q 451.14 261.60 455.88 263.17
  Q 456.32 263.32 456.35 262.86
  Q 456.87 255.27 457.36 247.78
  C 457.69 242.83 458.41 237.01 462.95 234.57
  C 466.57 232.62 472.50 227.66 476.48 228.79
  Q 485.64 231.37 490.44 239.42
  Q 490.68 239.84 491.12 240.04
  C 495.17 241.94 506.04 238.51 502.05 231.70
  C 499.69 227.67 504.75 218.48 506.53 214.44
  C 508.12 210.86 510.86 208.11 513.13 204.86
  Q 514.95 202.25 518.25 202.25
  Q 536.13 202.25 554.01 202.25
  C 560.41 202.25 558.91 207.43 559.39 211.23
  Q 560.13 217.14 560.02 223.09
  A 1.23 1.20 -67.0 0 0 560.36 223.96
  C 563.64 227.44 564.86 228.36 564.47 233.54
  Q 564.44 234.05 564.83 234.36
  C 566.29 235.48 567.38 237.05 568.97 237.95
  Q 574.91 241.30 577.15 247.79
  C 577.74 249.50 578.54 250.17 580.23 250.43
  Q 580.71 250.50 581.09 250.80
  C 585.60 254.34 589.96 257.63 594.86 260.60
  C 596.79 261.77 598.12 263.49 599.95 264.49
  Q 605.64 267.61 611.37 270.64
  Q 612.99 271.50 615.55 271.89
  Q 622.97 273.02 626.83 279.86
  C 627.74 281.47 631.19 281.50 633.09 283.06
  C 635.89 285.36 638.19 285.10 639.30 289.36
  A 0.57 0.57 0.0 0 0 639.99 289.77
  C 644.95 288.51 653.48 289.07 649.83 297.07
  Q 617.69 367.50 585.67 437.99
  C 583.89 441.93 582.52 445.83 579.74 449.37
  Q 577.35 452.41 576.83 454.22
  C 574.85 461.11 578.31 464.01 583.43 467.38
  C 586.86 469.64 588.67 475.09 586.26 478.86
  C 583.42 483.32 584.79 487.91 580.63 491.18
  A 1.80 1.72 -9.4 0 0 580.10 491.89
  Q 578.70 495.38 580.80 498.49
  A 1.23 1.20 28.4 0 1 581.01 499.17
  C 580.97 505.57 582.09 509.76 577.72 515.03
  A 1.29 1.28 62.7 0 0 577.43 515.95
  C 577.89 521.82 577.63 529.07 569.77 528.93
  C 557.93 528.73 544.66 529.63 534.32 529.73
  C 510.08 529.97 485.78 531.41 461.56 530.95
  C 460.21 530.93 459.67 530.49 458.44 530.02
  Q 457.94 529.83 457.57 530.22
  C 455.80 532.09 453.79 534.92 451.19 535.22
  C 446.61 535.73 443.70 531.89 441.18 528.70
  C 438.44 525.24 435.49 524.95 434.53 519.74
  A 0.75 0.75 0.0 0 0 433.87 519.13
  Q 427.28 518.46 424.21 513.20
  C 421.63 508.79 417.58 506.56 412.45 506.52
  Q 403.37 506.44 394.30 506.52
  A 0.67 0.65 -80.0 0 0 393.70 506.95
  L 392.48 510.28
  A 0.33 0.33 0.0 0 1 392.34 510.45
  Q 384.58 514.88 378.06 521.03
  Q 377.66 521.41 377.74 521.95
  C 378.23 525.43 382.21 526.89 379.48 530.98
  C 377.14 534.49 372.74 540.58 369.12 541.19
  Q 368.65 541.27 368.20 541.08
  C 363.91 539.31 360.52 543.29 356.18 543.45
  Q 353.38 543.56 350.50 542.61
  A 1.36 1.36 0.0 0 0 348.72 544.00
  Q 349.18 550.13 344.35 553.67
  Q 343.93 553.98 343.70 554.45
  Q 341.70 558.64 337.41 557.64
  C 335.89 557.28 334.66 555.81 332.92 555.23
  Q 332.41 555.06 332.04 555.45
  C 328.53 559.10 324.54 559.84 320.10 562.40
  C 316.66 564.38 313.58 563.84 310.38 561.76
  Q 309.99 561.50 309.51 561.50
  L 293.74 561.50
  Q 293.14 561.50 292.99 562.08
  C 291.89 566.27 290.23 568.54 286.54 571.29
  C 282.05 574.64 279.21 578.95 272.73 576.45
  Q 243.68 565.21 214.81 553.50
  C 194.26 545.16 174.13 534.47 154.47 524.62
  A 12.78 12.59 -25.8 0 0 151.30 523.54
  Q 113.68 516.24 76.28 509.06
  C 60.08 505.95 44.26 499.79 28.82 494.14
  C 22.82 491.95 25.16 485.61 26.10 481.34
  A 1.60 1.56 -15.2 0 1 26.59 480.51
  C 31.55 476.21 36.84 470.80 43.49 469.20
  C 50.53 467.49 43.40 455.92 43.70 451.91
  C 44.35 443.05 50.71 438.18 51.58 429.67
  C 52.08 424.81 53.73 420.81 54.36 416.05
  A 1.20 1.19 76.7 0 1 54.87 415.22
  Q 60.27 411.49 65.76 408.15
  C 68.92 406.22 69.88 403.34 72.70 401.54
  C 79.35 397.27 87.67 390.10 95.87 389.66
  Q 103.73 389.23 110.41 384.94
  A 1.59 1.58 29.7 0 1 111.33 384.69
  C 115.25 384.84 120.51 385.58 122.38 382.91
  Q 124.49 379.90 126.52 376.82
  A 1.56 1.51 6.8 0 1 127.32 376.21
  Q 131.29 374.86 135.51 375.32
  A 2.39 2.24 -49.6 0 0 136.48 375.21
  Q 140.04 374.02 143.50 375.43
  A 1.82 1.76 -4.8 0 1 144.31 376.09
  Q 148.17 381.88 155.27 380.28
  Q 155.71 380.18 155.78 379.73
  Z"
/>

<path id="AP" class="norte" stroke="#000" stroke-width="3" fill="#ffffff" d="
  M 821.45 65.69
  C 825.12 62.96 824.27 54.78 831.33 58.45
  Q 836.86 61.33 840.44 66.42
  C 843.58 70.89 843.75 79.40 844.13 84.75
  C 845.60 105.28 853.38 123.61 861.87 142.04
  C 862.74 143.94 865.14 146.15 867.27 146.39
  Q 873.94 147.15 880.50 148.50
  Q 880.98 148.60 881.33 148.95
  C 883.24 150.88 885.47 152.47 886.34 155.06
  Q 887.87 159.64 886.88 164.52
  Q 886.78 165.00 886.39 165.30
  C 882.66 168.13 885.16 170.14 883.90 173.09
  C 883.26 174.58 881.81 175.35 881.02 176.62
  C 876.96 183.10 875.68 189.48 867.09 191.35
  Q 864.53 191.90 861.57 194.54
  A 1.71 1.71 0.0 0 0 861.07 195.32
  C 859.54 200.26 859.19 206.61 853.31 208.25
  Q 848.24 209.67 843.29 211.45
  A 1.59 1.58 -83.5 0 0 842.54 212.05
  C 840.34 215.39 836.85 218.47 835.42 222.12
  Q 832.17 230.45 825.26 236.17
  C 823.93 237.27 823.27 238.34 822.38 239.70
  A 1.41 1.40 -31.2 0 0 822.15 240.62
  C 822.73 246.21 822.25 254.35 814.93 254.66
  C 807.25 254.98 802.47 256.59 796.19 250.54
  Q 794.96 249.35 794.49 245.67
  A 0.73 0.72 87.6 0 0 793.81 245.04
  C 789.08 244.76 789.40 239.82 788.63 236.39
  A 1.72 1.71 16.3 0 0 788.17 235.56
  Q 785.93 233.43 785.53 230.49
  Q 784.73 224.52 779.93 221.36
  Q 779.50 221.08 779.31 220.60
  Q 778.47 218.39 776.19 217.61
  Q 775.74 217.46 775.48 217.07
  C 772.33 212.38 771.57 207.61 768.96 202.80
  C 766.43 198.11 766.89 192.12 767.03 186.71
  A 1.42 1.40 -80.5 0 0 766.05 185.32
  Q 759.15 183.12 756.23 176.52
  C 754.80 173.29 756.62 169.66 754.36 166.88
  Q 749.70 161.12 741.94 161.78
  A 1.83 1.78 -33.7 0 1 740.96 161.60
  C 734.89 158.58 732.35 155.66 728.39 150.16
  Q 728.08 149.74 727.59 149.56
  C 722.98 147.92 719.18 148.84 714.72 147.76
  C 712.15 147.13 708.65 147.75 708.14 144.04
  Q 707.06 136.07 707.91 130.46
  C 708.91 123.83 715.46 125.44 718.99 128.59
  C 722.03 131.30 730.45 134.92 734.37 131.59
  Q 738.36 128.20 743.26 126.34
  Q 743.73 126.17 744.22 126.26
  C 747.52 126.92 751.32 128.54 754.62 127.97
  C 757.80 127.42 761.10 125.89 763.65 129.12
  Q 763.96 129.51 764.44 129.64
  Q 769.30 130.95 774.34 130.41
  Q 774.90 130.35 775.30 129.96
  C 778.47 126.80 784.01 126.45 785.47 122.69
  C 789.68 111.78 794.43 98.99 801.57 89.66
  C 807.89 81.42 812.89 72.05 821.45 65.69
  Z"
/>

<path id="PA" class="norte" stroke="#000" stroke-width="3" fill="#ffffff" d="
  M 1002.81 248.19
  C 1009.54 254.73 1017.08 251.27 1023.30 257.71
  C 1026.28 260.79 1023.30 272.21 1021.94 274.94
  C 1020.76 277.31 1020.04 277.91 1021.08 280.69
  C 1025.78 293.22 1012.73 295.18 1013.23 304.99
  C 1013.45 309.36 1008.19 311.58 1005.55 314.92
  Q 1005.23 315.33 1005.26 315.84
  C 1006.03 327.75 998.38 334.55 991.29 342.74
  A 2.49 2.45 -21.1 0 0 990.72 344.00
  L 988.95 355.94
  A 0.95 0.92 80.6 0 1 988.47 356.63
  C 986.69 357.57 985.47 358.85 983.64 359.84
  Q 981.29 361.13 979.60 363.26
  A 1.53 1.52 65.6 0 0 979.27 364.15
  C 979.07 369.60 971.60 376.34 968.00 380.17
  A 2.70 2.68 22.7 0 1 965.93 381.01
  C 962.96 380.88 960.54 381.62 958.12 383.62
  Q 943.86 395.46 928.95 406.09
  A 0.36 0.35 28.8 0 0 929.14 406.73
  C 934.90 407.07 954.21 412.95 945.29 422.20
  Q 944.93 422.58 945.01 423.10
  C 945.69 427.13 944.03 429.69 943.39 433.56
  A 1.69 1.68 72.2 0 1 942.94 434.44
  L 939.80 437.57
  A 1.31 1.30 66.7 0 0 939.42 438.54
  Q 939.58 442.96 936.43 444.71
  Q 930.06 448.26 928.40 454.11
  Q 928.25 454.63 927.76 454.86
  Q 923.56 456.84 915.29 460.23
  C 906.27 463.93 911.77 474.49 906.51 480.97
  Q 904.79 483.09 904.65 484.71
  C 904.04 491.89 911.65 490.33 910.13 498.88
  C 909.64 501.65 909.98 503.98 908.70 506.55
  Q 902.82 518.45 896.82 530.28
  C 895.05 533.77 893.20 535.09 889.60 536.03
  Q 889.10 536.16 888.77 536.56
  L 877.65 550.00
  A 1.20 1.17 -23.4 0 0 877.38 550.66
  Q 876.81 557.54 874.16 561.92
  C 872.31 564.97 871.60 569.55 867.64 569.18
  Q 861.00 568.55 845.00 567.50
  Q 746.61 560.99 648.22 554.47
  C 643.81 554.18 635.39 551.37 632.09 548.37
  Q 627.70 544.40 622.96 540.83
  C 619.87 538.50 614.93 536.49 611.56 532.92
  Q 609.91 531.16 607.30 528.78
  C 601.70 523.66 601.46 516.14 600.53 509.00
  C 600.09 505.60 597.80 504.04 596.92 501.19
  Q 594.90 494.65 592.60 488.22
  C 590.34 481.91 584.60 478.90 583.58 471.44
  Q 583.52 470.96 583.10 470.71
  C 579.92 468.83 576.49 466.97 574.98 463.48
  Q 571.55 455.55 576.69 448.78
  Q 578.80 446.01 579.60 444.27
  Q 613.99 368.84 648.27 293.37
  Q 648.50 292.87 648.00 292.65
  C 644.55 291.12 637.64 293.94 636.38 289.24
  Q 636.25 288.76 635.85 288.46
  Q 632.82 286.20 629.49 284.49
  C 625.29 282.32 623.26 280.17 620.73 276.59
  A 1.49 1.48 -10.0 0 0 619.94 276.04
  C 616.50 275.11 613.04 274.66 609.91 273.06
  Q 596.02 265.94 583.70 256.29
  C 579.56 253.05 573.72 252.10 573.45 245.62
  A 1.13 1.11 18.7 0 0 573.04 244.80
  Q 569.64 242.08 566.18 239.48
  C 562.49 236.69 560.82 234.33 561.58 229.78
  A 1.13 1.12 31.0 0 0 561.35 228.88
  C 559.60 226.67 557.25 225.68 557.20 222.51
  C 556.96 207.11 554.48 191.92 553.50 176.65
  C 553.30 173.63 551.65 169.76 554.35 167.09
  Q 554.68 166.76 555.14 166.65
  Q 558.79 165.78 562.45 164.98
  C 564.41 164.56 567.39 165.23 569.48 163.74
  A 1.14 1.12 73.6 0 0 569.95 162.86
  C 570.11 155.79 576.19 153.59 582.55 154.05
  C 588.15 154.47 593.39 149.89 599.54 149.52
  C 611.14 148.82 607.57 133.63 624.85 139.79
  C 628.47 141.08 631.30 140.95 635.47 140.01
  C 639.08 139.21 641.22 139.07 645.28 139.79
  C 647.41 140.16 649.49 139.85 651.51 140.38
  C 655.46 141.40 659.31 143.09 663.42 142.74
  A 1.85 1.84 -17.5 0 0 664.86 139.98
  C 663.04 136.83 658.98 131.06 659.46 127.49
  Q 660.19 122.16 666.02 120.59
  Q 666.50 120.46 666.96 120.61
  Q 671.71 122.19 676.67 121.64
  C 679.19 121.37 684.19 121.42 687.00 119.73
  C 693.60 115.74 703.91 119.07 709.36 123.42
  C 711.12 124.83 711.88 127.28 711.24 129.38
  Q 709.04 136.71 710.93 144.19
  Q 711.04 144.64 711.49 144.76
  C 716.88 146.15 722.47 144.89 728.22 146.51
  Q 728.71 146.65 729.01 147.06
  C 730.22 148.70 731.64 149.76 732.78 151.43
  C 736.68 157.13 741.65 158.78 748.09 159.65
  C 753.00 160.30 758.19 164.76 758.53 169.91
  C 758.70 172.53 757.89 175.54 759.95 177.53
  Q 761.40 178.94 761.91 179.83
  Q 762.15 180.26 762.59 180.47
  C 765.58 181.99 769.30 182.87 769.91 186.89
  Q 769.98 187.36 769.84 187.81
  C 768.84 190.96 770.04 193.45 770.23 196.56
  C 770.43 199.73 772.35 202.25 773.12 204.85
  C 774.30 208.86 775.25 212.47 778.41 215.52
  C 782.89 219.83 788.27 224.63 788.55 231.31
  A 1.66 1.64 24.7 0 0 788.92 232.29
  Q 792.06 236.16 792.40 241.25
  Q 792.43 241.76 792.88 241.99
  L 795.43 243.28
  A 1.00 0.96 89.4 0 1 795.89 243.75
  L 798.28 248.95
  A 1.14 1.07 3.5 0 0 798.76 249.46
  C 801.33 250.89 803.44 252.28 806.55 252.26
  C 810.04 252.23 814.15 252.79 817.44 251.29
  Q 817.88 251.09 818.02 250.64
  Q 819.54 246.01 819.29 243.75
  C 818.30 234.99 826.27 233.28 829.73 226.94
  Q 831.98 222.81 834.08 218.61
  C 835.57 215.63 838.23 213.28 840.41 210.42
  C 843.95 205.76 854.78 207.63 856.02 202.39
  Q 857.56 195.89 859.08 193.32
  C 860.02 191.73 863.93 189.36 865.93 189.43
  C 872.07 189.64 870.26 203.73 871.06 207.70
  C 871.53 210.03 871.21 213.02 872.24 215.53
  A 1.15 1.14 -6.2 0 0 873.10 216.22
  L 902.15 221.41
  Q 902.69 221.51 903.14 221.19
  C 906.69 218.68 909.53 217.81 914.06 218.70
  Q 924.20 220.71 934.33 222.56
  C 938.88 223.40 941.23 225.82 939.75 230.50
  Q 936.93 239.47 933.63 248.27
  C 932.32 251.77 929.64 253.80 927.03 256.26
  Q 926.67 256.60 926.64 257.10
  C 926.16 265.33 919.80 267.85 913.49 271.42
  C 910.37 273.19 909.47 275.51 908.94 278.80
  A 0.82 0.82 0.0 0 0 909.75 279.75
  L 917.99 279.75
  A 1.30 1.29 -63.7 0 0 918.78 279.48
  C 922.98 276.29 924.53 272.83 927.97 269.98
  C 931.18 267.32 936.68 265.66 940.78 263.19
  C 942.45 262.18 942.82 261.04 943.96 259.55
  Q 944.28 259.15 944.32 258.64
  Q 944.70 254.22 944.49 251.25
  C 944.11 245.97 951.06 240.73 956.16 240.06
  C 961.15 239.40 963.38 238.96 967.15 237.82
  Q 967.64 237.67 968.11 237.85
  C 970.07 238.62 971.94 238.44 973.85 239.02
  C 977.73 240.19 983.79 239.06 986.38 241.72
  A 1.72 1.66 -15.0 0 0 987.23 242.19
  Q 990.57 242.95 993.68 244.30
  C 996.65 245.60 1000.24 245.69 1002.81 248.19
  Z"
/>

<path id="RO" class="norte" stroke="#000" stroke-width="3" fill="#ffffff" d="
  M 470.05 608.48
  Q 485.58 608.55 501.13 608.49
  C 504.60 608.48 506.47 609.84 508.92 611.92
  Q 509.30 612.24 509.79 612.24
  C 513.19 612.26 519.16 611.25 521.43 614.36
  Q 525.50 619.93 524.32 626.62
  C 523.60 630.70 518.05 631.70 519.88 636.77
  C 522.08 642.85 527.85 648.93 528.27 655.43
  Q 528.43 657.92 528.78 660.37
  C 529.26 663.73 527.74 666.62 526.30 669.48
  Q 525.30 671.45 523.83 675.25
  C 522.69 678.21 521.78 679.93 519.04 681.99
  C 513.04 686.51 512.21 693.55 509.94 699.58
  Q 509.75 700.08 509.31 700.35
  Q 502.21 704.76 499.82 706.56
  C 495.05 710.15 491.12 706.72 486.74 704.50
  C 483.45 702.84 479.20 703.49 475.62 703.50
  Q 475.13 703.51 474.71 703.75
  C 471.63 705.57 469.00 704.39 466.34 704.26
  C 463.27 704.10 456.39 704.07 454.28 700.80
  Q 454.01 700.37 453.55 700.15
  C 449.46 698.21 447.38 695.75 445.75 691.61
  C 444.61 688.71 439.97 689.94 436.90 689.72
  C 433.30 689.47 429.81 687.67 426.21 686.76
  Q 423.90 686.17 422.24 684.82
  C 418.29 681.60 412.92 674.79 410.71 674.21
  A 1.01 1.00 30.7 0 0 409.75 674.45
  C 406.23 677.77 403.36 676.85 400.29 673.55
  Q 393.94 666.70 384.81 669.37
  C 377.49 671.51 365.26 670.70 362.45 662.31
  A 1.37 1.36 -85.2 0 0 361.84 661.58
  C 358.82 659.90 356.04 659.13 353.49 656.55
  C 350.81 653.84 347.26 653.29 344.90 650.77
  Q 341.11 646.74 337.60 642.47
  A 1.58 1.58 0.0 0 1 337.25 641.60
  Q 337.08 639.36 336.06 637.94
  Q 331.91 632.13 328.25 623.52
  C 326.46 619.31 329.98 614.39 331.16 610.29
  Q 331.29 609.81 330.99 609.42
  Q 328.45 606.05 328.21 601.98
  C 328.10 600.15 327.15 598.45 327.89 596.34
  C 328.99 593.18 332.23 587.55 330.68 584.48
  A 1.47 1.44 33.2 0 1 330.52 583.74
  C 330.62 581.75 330.93 568.37 325.53 571.04
  C 322.61 572.48 320.46 573.79 316.98 573.71
  Q 312.22 573.61 306.50 574.49
  Q 291.36 576.80 287.74 578.46
  Q 285.52 579.49 283.69 579.40
  C 280.09 579.23 279.01 575.02 280.79 572.40
  Q 281.41 571.50 284.32 569.64
  Q 289.16 566.57 290.56 560.61
  A 1.36 1.33 -12.1 0 1 291.08 559.82
  C 293.98 557.71 301.16 558.46 307.75 558.50
  C 310.86 558.51 312.64 559.60 315.27 560.99
  A 1.18 1.17 47.7 0 0 316.25 561.04
  Q 324.14 557.85 331.04 553.08
  C 332.91 551.78 336.69 554.34 338.31 555.39
  A 0.76 0.74 -53.1 0 0 339.28 555.24
  L 345.23 548.30
  Q 345.53 547.95 345.56 547.48
  C 345.88 540.32 349.30 538.96 356.17 541.16
  Q 356.65 541.32 357.06 541.02
  Q 362.00 537.52 368.12 538.27
  C 371.22 538.64 375.36 531.44 377.29 529.26
  A 1.62 1.61 -45.7 0 0 377.27 527.09
  C 374.50 524.11 374.84 520.56 377.76 517.64
  Q 383.17 512.24 389.90 508.63
  Q 390.35 508.38 390.45 507.88
  C 391.08 504.40 393.11 503.48 396.57 503.49
  C 408.16 503.51 420.29 500.80 427.49 512.74
  C 430.08 517.04 433.58 514.62 436.31 517.64
  C 438.68 520.26 436.86 523.13 441.63 524.50
  A 1.36 1.34 85.4 0 1 442.47 525.22
  Q 444.58 529.76 448.87 532.37
  A 2.61 2.61 0.0 0 0 452.47 531.48
  C 456.60 524.55 460.64 528.18 465.04 531.57
  C 470.41 535.72 467.30 538.81 465.28 543.37
  Q 465.06 543.87 465.30 544.36
  Q 467.77 549.25 466.00 554.48
  A 1.48 1.46 -44.7 0 0 465.99 555.38
  Q 466.73 557.59 466.73 558.25
  Q 466.77 570.10 466.74 581.95
  C 466.73 585.87 469.52 587.50 469.50 590.94
  Q 469.46 599.45 469.52 607.95
  Q 469.53 608.47 470.05 608.48
  Z"
/>

<path id="RR" class="norte" stroke="#000" stroke-width="3" fill="#ffffff" d="
  M 399.62 76.50
  C 402.85 79.32 411.49 91.60 414.65 80.57
  C 415.80 76.55 411.79 69.78 417.95 67.85
  Q 420.45 67.06 422.99 66.42
  Q 423.48 66.29 423.84 65.94
  C 430.53 59.32 434.60 67.71 440.73 65.30
  C 443.51 64.21 445.33 63.78 447.81 63.12
  C 450.26 62.47 452.17 60.90 454.78 59.99
  C 457.66 58.98 460.38 55.55 462.48 53.37
  Q 462.82 53.01 463.31 52.91
  C 467.18 52.13 472.16 48.75 475.71 50.32
  Q 476.16 50.51 476.62 50.39
  C 481.67 49.10 482.03 45.02 485.92 42.75
  C 490.87 39.87 493.36 36.84 492.28 30.76
  C 491.61 27.00 493.04 23.67 497.52 24.22
  Q 504.25 25.03 508.46 24.31
  A 1.82 1.80 -38.7 0 1 509.41 24.41
  Q 516.62 27.21 517.27 34.51
  C 517.61 38.44 514.42 43.40 512.69 47.06
  A 1.67 1.66 -77.8 0 0 514.22 49.44
  C 519.90 49.34 525.26 50.70 526.06 57.34
  Q 526.12 57.83 526.45 58.19
  Q 528.53 60.46 529.66 63.22
  C 531.34 67.33 534.03 68.56 531.56 73.82
  C 526.72 84.16 519.86 95.35 518.50 106.82
  C 517.88 112.00 518.10 126.60 524.00 129.69
  C 528.04 131.80 526.76 137.44 526.75 142.64
  Q 526.75 143.14 527.08 143.52
  Q 529.07 145.81 530.84 148.24
  C 536.77 156.39 544.46 160.43 553.39 164.96
  A 3.81 3.80 -79.3 0 1 555.47 168.02
  L 558.47 200.07
  A 4.06 4.05 -2.7 0 1 554.43 204.50
  L 518.99 204.50
  A 3.65 3.63 18.6 0 0 516.10 205.92
  C 513.72 209.02 510.94 211.56 509.39 215.21
  Q 506.54 221.93 503.70 228.66
  Q 503.50 229.13 503.83 229.52
  C 510.43 237.12 500.38 242.90 494.19 243.65
  C 490.73 244.07 488.49 241.67 486.45 238.86
  C 483.52 234.81 479.53 232.44 474.72 231.13
  Q 474.25 231.00 473.85 231.29
  Q 471.10 233.31 468.24 235.17
  C 466.71 236.17 463.12 237.31 462.05 239.32
  C 459.90 243.39 460.27 249.13 459.78 253.88
  C 459.44 257.26 460.53 264.93 455.68 265.27
  C 448.92 265.75 444.96 258.68 440.35 255.35
  Q 434.55 251.15 429.19 246.38
  Q 428.76 246.00 428.65 245.44
  Q 427.81 241.25 428.53 237.03
  Q 428.63 236.46 429.03 236.05
  C 431.56 233.44 428.49 228.27 427.72 225.12
  Q 427.60 224.64 427.26 224.28
  C 423.75 220.65 421.05 215.70 422.04 210.53
  Q 422.81 206.49 422.43 202.34
  A 1.86 1.79 -37.0 0 1 422.58 201.41
  Q 424.90 196.15 422.96 190.95
  C 421.31 186.51 425.77 184.85 424.21 182.01
  Q 423.15 180.05 423.19 178.38
  Q 423.20 177.85 422.96 177.38
  Q 419.53 170.62 418.57 163.10
  Q 418.50 162.51 418.03 162.16
  C 411.93 157.57 415.07 151.45 416.21 145.51
  A 0.66 0.66 0.0 0 0 415.82 144.78
  Q 409.67 142.26 403.33 140.65
  C 401.43 140.17 400.59 139.01 399.33 137.69
  A 1.41 1.38 69.5 0 0 398.44 137.27
  Q 391.15 136.64 392.04 129.29
  A 1.90 1.90 0.0 0 0 390.23 127.17
  Q 383.40 126.88 376.17 127.00
  C 371.85 127.06 368.40 125.78 370.15 120.62
  Q 370.31 120.16 370.14 119.71
  C 369.31 117.45 367.50 116.16 366.62 114.18
  Q 364.65 109.74 362.66 105.32
  C 359.86 99.12 363.71 90.20 360.13 85.14
  Q 357.54 81.47 354.05 79.44
  C 349.87 77.01 338.01 70.54 345.82 64.53
  A 1.33 1.31 28.0 0 1 346.73 64.26
  Q 359.24 65.29 363.01 66.70
  C 367.43 68.36 367.77 75.98 373.72 74.27
  C 378.20 72.98 380.16 74.22 384.50 74.68
  C 388.99 75.17 392.45 68.81 397.11 73.81
  Q 399.54 76.43 399.62 76.50
  Z"
/>

<path id="TO" class="norte" stroke="#000" stroke-width="3" fill="#ffffff" d="
  M 960.77 690.61
  A 0.26 0.26 0.0 0 0 960.29 690.80
  C 961.49 697.48 956.64 698.43 951.66 696.67
  Q 945.17 694.37 940.69 689.04
  Q 940.33 688.60 939.93 689.01
  C 935.87 693.28 931.33 691.69 926.37 690.72
  Q 925.89 690.62 925.46 690.87
  Q 922.58 692.54 920.01 691.21
  C 916.87 689.59 917.95 686.53 917.29 683.81
  C 916.46 680.37 913.88 675.59 910.31 673.74
  A 0.89 0.89 0.0 0 0 909.32 673.85
  C 905.00 677.49 901.67 684.54 899.77 689.77
  Q 899.60 690.23 899.19 690.51
  C 894.02 694.03 882.10 688.15 874.50 685.24
  C 861.52 680.27 869.07 675.18 869.69 666.07
  Q 869.82 664.15 869.72 662.19
  A 0.66 0.65 -18.2 0 0 868.70 661.68
  C 865.20 664.06 863.51 669.47 861.83 673.22
  C 859.63 678.09 854.51 677.33 852.94 672.67
  C 851.27 667.67 853.06 660.87 851.66 655.13
  Q 850.36 649.80 851.62 644.34
  Q 851.74 643.83 851.60 643.33
  Q 850.35 638.68 851.70 634.11
  Q 851.85 633.59 851.47 633.21
  C 849.95 631.72 849.34 630.30 849.79 628.08
  C 851.07 621.75 853.46 615.72 854.07 609.35
  Q 854.49 605.00 855.28 597.75
  C 855.72 593.68 858.00 592.49 859.26 589.38
  Q 865.46 573.98 872.32 558.88
  C 874.55 553.98 873.89 549.50 877.86 545.09
  C 881.54 541.00 886.00 533.45 891.32 532.52
  A 2.66 2.65 8.5 0 0 893.22 531.12
  Q 899.94 517.85 906.49 504.50
  Q 907.39 502.66 907.48 495.64
  Q 907.48 495.21 907.18 494.90
  L 902.33 489.96
  A 1.51 1.49 18.1 0 1 901.93 489.18
  Q 901.01 483.50 904.14 478.95
  C 906.54 475.46 906.91 472.08 906.80 468.07
  C 906.71 464.35 908.38 462.23 910.83 459.90
  C 915.72 455.24 924.50 456.00 927.45 449.65
  C 929.53 445.17 932.93 443.28 936.91 440.76
  Q 937.36 440.48 937.29 439.96
  Q 936.75 435.83 940.31 433.85
  A 0.88 0.87 73.6 0 0 940.76 433.02
  C 940.53 429.82 943.18 427.48 942.54 425.26
  C 941.10 420.22 947.76 418.75 943.12 414.65
  Q 938.27 410.35 931.76 409.96
  C 927.71 409.71 926.46 405.02 929.57 402.47
  Q 932.81 399.82 935.52 397.96
  A 5.01 5.00 -49.7 0 1 940.47 397.55
  Q 943.45 398.94 946.39 400.44
  C 949.53 402.05 953.17 401.39 956.60 401.81
  A 1.10 1.09 -12.6 0 1 957.41 402.32
  C 960.80 407.67 965.40 409.32 969.81 412.18
  C 974.60 415.29 976.03 421.80 975.40 427.01
  C 974.74 432.55 976.88 437.26 975.92 442.67
  C 975.55 444.76 975.81 446.66 974.96 448.68
  C 972.48 454.50 972.11 460.59 970.95 466.74
  C 970.36 469.90 966.97 471.32 964.49 473.00
  A 0.79 0.79 0.0 0 0 964.68 474.40
  L 969.31 476.00
  A 1.47 1.46 81.3 0 1 970.01 476.52
  Q 971.86 479.17 971.15 482.50
  Q 971.03 483.09 971.43 483.55
  Q 978.38 491.30 984.10 499.90
  Q 984.66 500.74 986.36 502.16
  Q 986.73 502.47 987.18 502.30
  C 991.49 500.69 1000.55 497.85 1004.71 500.56
  C 1010.31 504.21 1007.80 509.88 1006.15 514.82
  C 1003.82 521.77 994.99 518.93 993.75 525.83
  C 992.54 532.58 990.41 535.54 985.75 540.30
  A 0.84 0.83 -66.3 0 0 986.30 541.72
  C 995.14 542.16 993.12 544.63 993.83 551.61
  Q 993.88 552.12 994.32 552.38
  C 998.17 554.69 1005.72 557.11 1002.29 563.31
  C 1001.73 564.31 1000.49 564.80 999.80 565.92
  A 0.63 0.62 33.7 0 0 999.97 566.75
  C 1003.54 569.26 1007.23 577.30 1008.96 580.91
  A 2.57 2.56 75.7 0 0 1011.39 582.36
  C 1017.72 582.09 1019.64 586.71 1025.81 587.90
  C 1028.48 588.41 1028.74 592.49 1027.75 594.18
  C 1026.24 596.77 1018.22 600.80 1015.39 602.52
  C 1008.88 606.50 1011.46 610.51 1007.68 615.18
  C 1005.04 618.45 997.30 627.34 1005.02 630.07
  C 1007.89 631.09 1011.10 631.43 1013.87 632.57
  Q 1014.37 632.77 1014.59 633.27
  Q 1017.17 639.22 1011.77 642.85
  A 0.64 0.64 0.0 0 0 1011.79 643.93
  C 1017.39 647.41 1011.26 652.09 1008.66 654.72
  Q 1008.30 655.09 1008.29 655.62
  L 1008.23 665.15
  Q 1008.23 665.58 1008.57 665.85
  Q 1017.14 672.42 1009.94 680.98
  A 1.12 1.09 16.2 0 1 1009.22 681.36
  L 997.10 682.67
  Q 996.65 682.72 996.33 683.04
  L 990.45 688.93
  A 1.41 1.40 18.7 0 1 989.63 689.33
  C 985.15 689.87 980.72 689.26 976.50 690.67
  C 971.57 692.32 964.61 696.70 960.77 690.61
  Z"
/>

<!-- Sudeste -->
<path id="ES" class="sudeste" stroke="#000" stroke-width="3" fill="#ffffff" d="
  M 1148.52 985.01
  A 6.48 0.52 73.7 0 1 1146.73 980.30
  C 1145.35 975.84 1145.02 971.44 1147.52 966.98
  A 1.90 1.88 -30.7 0 0 1147.76 966.06
  C 1147.72 962.23 1146.93 957.58 1151.43 955.92
  Q 1155.47 954.43 1159.80 954.47
  Q 1160.27 954.48 1160.64 954.20
  C 1166.66 949.67 1168.21 943.69 1170.94 937.44
  C 1172.57 933.70 1176.29 931.83 1178.64 928.14
  C 1182.08 922.71 1180.63 917.08 1177.50 911.80
  C 1175.31 908.13 1178.45 906.70 1180.89 904.99
  Q 1181.35 904.68 1181.25 904.13
  C 1180.69 901.14 1179.42 898.92 1178.96 895.81
  A 1.96 1.95 51.7 0 1 1179.07 894.84
  C 1180.63 890.94 1177.74 890.15 1177.00 887.52
  C 1174.85 879.84 1186.62 881.62 1186.72 877.24
  A 2.85 2.84 -5.1 0 1 1188.99 874.53
  Q 1193.62 873.57 1198.27 872.03
  C 1200.46 871.30 1203.03 873.25 1205.00 874.43
  Q 1220.71 883.86 1226.81 888.19
  C 1228.49 889.38 1228.43 891.90 1227.67 893.84
  C 1222.76 906.37 1223.20 917.50 1223.24 930.65
  C 1223.25 934.43 1220.64 937.67 1218.23 940.28
  C 1216.32 942.35 1213.22 942.83 1210.71 944.23
  Q 1210.27 944.48 1210.05 944.94
  C 1206.35 952.80 1204.49 962.17 1197.24 964.67
  C 1190.42 967.03 1193.70 978.83 1183.30 981.71
  A 1.00 1.00 0.0 0 0 1182.62 982.35
  Q 1180.59 988.50 1177.63 993.14
  C 1174.54 997.97 1168.57 994.90 1163.99 995.30
  Q 1163.48 995.34 1163.03 995.11
  C 1160.61 993.86 1157.97 993.63 1155.89 992.16
  Q 1151.67 989.15 1148.52 985.01
  Z"
/>

<path id="MG" class="sudeste" stroke="#000" stroke-width="3" fill="#ffffff" d="
  M 982.93 769.68
  C 980.88 768.74 981.25 763.84 981.88 762.52
  C 983.66 758.82 989.33 757.57 993.21 757.70
  Q 993.72 757.72 993.73 757.20
  C 993.82 754.19 992.81 750.01 996.51 748.59
  C 998.85 747.69 1001.78 749.54 1003.92 750.73
  A 1.38 1.37 -85.0 0 1 1004.52 751.45
  C 1006.70 757.46 1011.79 752.44 1014.67 756.76
  Q 1016.48 759.47 1016.16 762.80
  Q 1016.13 763.13 1016.47 763.11
  L 1024.35 762.52
  Q 1024.94 762.48 1025.28 762.01
  L 1028.73 757.24
  A 3.62 3.60 11.5 0 1 1030.87 755.83
  L 1036.70 754.51
  Q 1037.10 754.42 1037.38 754.11
  C 1041.59 749.53 1045.88 749.26 1050.60 746.22
  Q 1058.26 741.31 1065.93 736.45
  C 1072.35 732.38 1092.08 730.36 1093.46 739.97
  Q 1094.11 744.46 1092.27 748.77
  A 0.46 0.46 0.0 0 0 1092.54 749.38
  L 1102.90 752.97
  Q 1103.39 753.14 1103.81 752.82
  L 1109.22 748.62
  A 0.85 0.82 22.7 0 1 1109.68 748.44
  C 1112.81 748.15 1120.28 747.11 1122.66 750.32
  C 1125.05 753.52 1128.72 759.33 1132.35 760.94
  Q 1139.57 764.15 1146.75 767.42
  C 1151.82 769.73 1154.11 769.83 1159.51 769.94
  C 1165.94 770.06 1172.69 779.90 1175.99 783.31
  A 0.71 0.65 -78.0 0 1 1176.16 783.60
  L 1178.65 790.97
  A 0.61 0.57 -85.1 0 0 1178.90 791.29
  L 1183.73 794.38
  A 1.62 1.61 -48.4 0 0 1185.65 794.26
  C 1188.63 791.79 1191.61 791.30 1195.52 792.44
  Q 1203.05 794.63 1210.44 797.20
  C 1215.32 798.89 1219.23 802.10 1223.60 804.88
  C 1229.26 808.48 1226.17 813.83 1223.60 818.59
  C 1220.81 823.75 1211.80 826.05 1211.78 832.65
  C 1211.77 839.72 1208.89 839.46 1203.07 839.53
  A 0.82 0.80 7.1 0 0 1202.30 840.12
  L 1198.76 852.41
  Q 1198.62 852.88 1198.85 853.31
  Q 1203.36 861.68 1210.18 868.12
  C 1213.84 871.59 1212.07 879.17 1206.78 878.45
  C 1204.72 878.18 1202.30 876.01 1200.29 874.85
  A 0.86 0.84 -37.5 0 0 1199.63 874.77
  L 1190.04 877.41
  A 1.33 1.28 5.7 0 0 1189.24 878.04
  C 1186.77 882.58 1183.79 883.14 1179.78 884.84
  A 1.51 1.50 51.0 0 0 1179.51 887.46
  C 1182.85 889.81 1182.07 894.05 1181.98 897.62
  Q 1181.97 898.12 1182.23 898.54
  C 1184.70 902.43 1183.26 908.62 1177.49 907.42
  A 0.42 0.42 0.0 0 0 1177.13 908.16
  Q 1185.20 915.03 1183.12 924.86
  C 1182.00 930.11 1178.24 933.86 1174.20 937.31
  Q 1173.82 937.64 1173.65 938.12
  C 1171.38 944.64 1169.16 949.77 1164.19 954.71
  C 1159.72 959.14 1156.17 956.12 1151.43 959.28
  Q 1151.03 959.55 1150.99 960.02
  C 1150.39 966.28 1149.15 974.76 1144.38 979.53
  C 1141.71 982.18 1138.65 981.05 1137.29 985.75
  Q 1135.19 992.98 1130.97 999.18
  C 1128.46 1002.86 1128.63 1004.49 1128.27 1008.75
  C 1127.93 1012.93 1122.16 1013.76 1119.01 1014.60
  C 1114.50 1015.79 1109.98 1018.54 1105.91 1020.81
  C 1101.67 1023.18 1098.44 1023.58 1095.02 1020.09
  Q 1094.67 1019.73 1094.16 1019.73
  C 1087.11 1019.80 1079.28 1018.72 1072.91 1022.52
  Q 1067.83 1025.55 1061.98 1026.15
  C 1055.45 1026.81 1050.25 1029.46 1043.92 1030.73
  C 1038.93 1031.73 1034.43 1034.47 1030.31 1035.52
  Q 1022.19 1037.60 1013.77 1037.26
  Q 1013.25 1037.24 1013.12 1037.75
  C 1012.29 1041.02 1012.69 1043.30 1009.47 1045.25
  Q 1009.07 1045.50 1008.60 1045.55
  C 1003.70 1046.08 989.94 1049.07 988.74 1041.01
  Q 988.08 1036.54 986.81 1033.47
  C 985.10 1029.33 980.55 1029.31 979.53 1024.19
  C 978.91 1021.06 980.91 1017.69 981.07 1015.06
  C 981.51 1007.98 981.68 1002.34 985.54 996.28
  Q 986.66 994.53 985.25 993.56
  C 981.50 990.98 979.95 989.48 974.77 990.75
  C 970.35 991.83 969.98 987.93 967.73 985.52
  A 1.82 1.80 17.1 0 1 967.28 984.68
  C 966.54 981.40 964.57 978.73 964.09 975.56
  C 963.23 969.78 962.92 967.30 966.06 962.05
  Q 966.33 961.59 965.88 961.32
  Q 961.18 958.49 962.64 952.74
  C 964.23 946.46 958.19 946.50 956.93 941.73
  Q 956.80 941.25 956.31 941.18
  Q 948.77 940.01 941.59 942.22
  C 937.16 943.58 932.10 942.66 928.51 943.28
  Q 922.81 944.28 919.71 944.50
  C 917.24 944.68 914.91 945.44 912.32 945.33
  Q 911.74 945.30 911.35 945.75
  L 909.26 948.18
  A 1.27 1.25 -70.3 0 1 908.32 948.63
  Q 904.38 948.71 900.51 948.67
  C 895.91 948.61 895.11 943.28 893.65 938.69
  Q 893.49 938.19 892.97 938.11
  Q 882.07 936.41 871.27 934.28
  C 867.93 933.63 863.89 934.04 860.09 932.69
  C 858.34 932.06 857.32 929.91 855.03 931.09
  C 850.44 933.44 837.69 940.48 834.94 932.74
  C 834.21 930.68 834.51 927.82 834.51 925.40
  A 1.26 1.23 64.1 0 1 834.76 924.65
  C 837.82 920.55 835.28 917.08 839.68 913.31
  C 844.17 909.46 845.13 903.55 851.88 903.19
  Q 852.39 903.16 852.63 902.71
  C 854.17 899.77 855.23 897.28 857.32 894.32
  C 858.39 892.81 858.68 890.91 859.78 889.69
  C 861.99 887.24 867.92 885.55 871.13 885.79
  Q 878.57 886.34 885.67 884.12
  C 888.45 883.25 890.16 883.85 892.14 885.67
  Q 892.52 886.03 892.94 885.71
  C 901.10 879.36 908.90 877.11 919.79 877.01
  C 926.37 876.95 933.68 876.10 939.81 878.86
  C 945.33 881.33 945.31 878.91 949.20 876.55
  Q 956.39 872.19 963.51 867.72
  A 0.97 0.95 76.4 0 0 963.97 866.95
  Q 964.16 863.97 963.65 861.21
  C 963.07 858.10 963.98 855.87 965.22 853.33
  A 1.95 1.94 -64.3 0 0 964.31 850.72
  L 959.46 848.43
  A 0.41 0.33 84.3 0 1 959.30 848.27
  C 956.21 843.01 960.83 839.14 964.43 835.64
  C 966.21 833.91 970.91 832.14 970.34 828.32
  Q 969.40 822.06 965.03 817.62
  C 963.08 815.64 961.67 813.30 962.56 810.80
  C 964.03 806.67 965.30 799.03 968.08 795.91
  C 972.45 791.01 975.84 790.00 982.81 789.07
  Q 983.37 789.00 983.45 788.43
  Q 984.09 783.69 981.82 778.46
  Q 980.61 775.68 981.99 772.16
  Q 982.17 771.70 982.53 771.36
  Q 982.97 770.94 983.20 770.36
  Q 983.39 769.89 982.93 769.68
  Z"
/>

<path id="RJ" class="sudeste" stroke="#000" stroke-width="3" fill="#ffffff" d="
  M 1060.95 1038.71
  C 1059.21 1038.54 1057.65 1037.70 1055.67 1037.80
  C 1050.39 1038.06 1041.47 1035.31 1045.50 1028.31
  A 1.30 1.28 3.3 0 1 1046.14 1027.75
  C 1051.18 1025.68 1056.10 1023.67 1061.62 1023.32
  Q 1067.38 1022.95 1072.16 1019.61
  C 1077.11 1016.15 1088.33 1017.49 1094.25 1017.51
  C 1097.36 1017.52 1098.37 1021.27 1101.96 1019.43
  Q 1108.15 1016.25 1114.41 1013.23
  C 1117.71 1011.63 1121.65 1011.03 1125.24 1009.53
  Q 1125.75 1009.33 1125.84 1008.79
  Q 1126.50 1005.21 1126.23 1001.57
  A 0.89 0.88 58.9 0 1 1126.37 1001.00
  C 1128.98 996.79 1131.82 992.86 1133.49 988.07
  C 1134.44 985.34 1134.98 982.82 1137.27 980.88
  C 1140.56 978.09 1148.23 974.19 1150.04 980.30
  C 1152.00 986.96 1157.87 991.46 1164.50 992.24
  C 1167.87 992.63 1172.41 992.36 1174.18 995.30
  C 1176.08 998.43 1171.25 1004.97 1171.07 1009.08
  C 1170.84 1014.42 1172.52 1022.41 1168.58 1025.15
  C 1164.23 1028.18 1161.03 1029.61 1155.30 1030.60
  Q 1143.97 1032.55 1136.64 1041.86
  A 1.50 1.48 -25.0 0 0 1136.32 1042.72
  C 1136.08 1047.76 1137.39 1054.72 1130.67 1055.90
  C 1128.70 1056.25 1126.34 1055.15 1124.25 1055.21
  C 1118.98 1055.38 1113.48 1054.53 1109.15 1054.52
  C 1102.23 1054.50 1092.92 1053.48 1086.35 1055.29
  Q 1082.46 1056.36 1078.37 1055.78
  A 1.53 1.52 68.5 0 1 1077.62 1055.45
  Q 1074.58 1052.95 1070.73 1052.41
  Q 1070.33 1052.35 1069.96 1052.50
  L 1062.39 1055.45
  A 0.98 0.97 -40.9 0 1 1061.58 1055.40
  Q 1052.37 1050.65 1045.16 1056.97
  C 1042.86 1058.99 1041.30 1059.38 1038.70 1057.85
  Q 1038.30 1057.61 1038.09 1057.20
  C 1032.27 1045.37 1055.09 1043.37 1061.10 1042.23
  A 1.78 1.78 0.0 0 0 1060.95 1038.71
  Z"
/>

<path id="SP" class="sudeste" stroke="#000" stroke-width="3" fill="#ffffff" d="
  M 886.25 1086.33
  C 883.43 1083.00 878.35 1077.89 880.23 1073.16
  C 882.01 1068.67 878.07 1067.78 878.44 1063.53
  C 879.17 1055.22 874.33 1048.21 868.13 1043.31
  A 1.46 1.45 64.2 0 0 867.22 1042.99
  Q 856.36 1043.01 845.63 1043.01
  C 841.87 1043.01 839.70 1041.18 837.18 1038.79
  A 1.76 1.73 -17.1 0 0 836.33 1038.35
  Q 832.04 1037.46 828.12 1035.63
  C 825.01 1034.18 825.42 1032.70 821.07 1034.08
  Q 816.60 1035.50 810.88 1032.59
  Q 805.05 1029.63 798.58 1028.76
  A 1.54 1.53 -54.6 0 0 797.65 1028.92
  C 793.66 1031.03 790.73 1031.86 786.01 1030.94
  Q 779.49 1029.67 772.90 1029.00
  A 1.57 1.56 -21.1 0 1 772.01 1028.61
  C 764.68 1022.18 779.75 1016.18 783.70 1013.83
  C 787.35 1011.65 791.01 1005.13 793.68 1001.64
  C 797.58 996.54 800.40 990.79 803.94 985.38
  A 1.34 1.31 -33.4 0 0 804.14 984.45
  C 803.08 977.23 807.76 972.20 813.40 967.41
  A 1.17 1.13 -19.5 0 0 813.81 966.58
  C 813.93 964.20 813.84 962.21 815.00 960.07
  C 820.03 950.81 825.88 945.61 836.33 943.45
  Q 836.90 943.33 836.98 942.75
  C 837.36 939.92 835.88 939.07 837.51 935.96
  Q 837.74 935.53 838.17 935.31
  C 844.84 932.03 855.89 925.86 861.28 930.17
  A 1.50 1.48 65.0 0 0 862.14 930.49
  C 866.82 930.64 870.95 932.02 875.50 932.20
  C 877.28 932.27 878.61 933.22 880.23 933.35
  C 884.81 933.70 891.22 934.50 895.56 936.92
  A 0.84 0.81 -87.1 0 1 895.92 937.33
  L 899.26 946.18
  Q 899.39 946.51 899.74 946.50
  Q 901.22 946.47 902.52 945.74
  Q 902.92 945.52 903.33 945.72
  L 906.79 947.39
  A 0.47 0.47 0.0 0 0 907.44 947.13
  L 908.25 944.90
  Q 908.44 944.36 908.95 944.07
  C 913.64 941.43 918.83 942.53 923.86 941.22
  Q 929.82 939.65 936.00 939.95
  C 941.13 940.20 945.23 937.69 950.26 937.82
  C 954.27 937.92 958.57 937.25 959.69 941.55
  A 1.38 1.37 8.5 0 0 960.31 942.38
  Q 967.28 946.63 964.94 954.77
  Q 964.81 955.20 964.97 955.63
  Q 965.71 957.68 967.44 959.01
  A 1.59 1.58 14.7 0 1 968.02 959.99
  Q 968.78 964.57 966.17 968.48
  Q 965.94 968.83 965.97 969.26
  C 966.53 976.19 968.96 981.28 972.51 987.93
  Q 972.75 988.37 973.23 988.23
  Q 981.63 985.85 987.33 992.09
  C 990.69 995.76 985.75 1000.11 985.09 1004.13
  C 984.20 1009.60 984.05 1015.13 982.62 1020.48
  Q 981.19 1025.78 986.68 1028.38
  Q 987.16 1028.60 987.46 1029.03
  Q 991.47 1034.70 991.67 1041.74
  A 0.86 0.83 14.8 0 0 992.10 1042.45
  C 995.74 1044.53 1004.44 1043.50 1008.52 1042.77
  A 0.92 0.92 0.0 0 0 1009.24 1042.12
  C 1010.26 1038.65 1010.54 1035.17 1014.91 1034.94
  C 1021.00 1034.63 1028.11 1033.69 1033.69 1031.09
  C 1038.51 1028.83 1044.21 1026.01 1047.03 1032.15
  Q 1047.25 1032.61 1047.69 1032.87
  Q 1051.53 1035.18 1057.24 1034.98
  C 1065.18 1034.70 1068.33 1044.20 1059.18 1045.32
  C 1051.80 1046.23 1043.87 1047.00 1039.39 1053.83
  A 0.93 0.93 0.0 0 0 1039.41 1054.88
  C 1042.23 1058.75 1046.04 1067.18 1036.59 1066.20
  A 1.63 1.57 -54.6 0 0 1035.69 1066.37
  C 1030.51 1068.98 1025.13 1072.89 1019.60 1074.50
  Q 1019.11 1074.64 1019.07 1075.15
  C 1018.70 1080.57 1013.87 1081.11 1009.60 1080.31
  C 1004.59 1079.38 1001.66 1079.95 996.97 1081.77
  Q 981.83 1087.67 970.55 1094.31
  C 967.48 1096.12 965.33 1100.87 961.48 1103.27
  C 956.81 1106.18 952.97 1109.12 947.62 1111.30
  Q 939.99 1114.40 934.11 1120.35
  A 1.42 1.40 70.3 0 0 933.72 1121.19
  C 933.37 1124.63 930.99 1128.86 927.07 1127.33
  C 924.78 1126.44 924.03 1123.79 922.81 1121.70
  Q 922.55 1121.25 922.03 1121.28
  C 913.91 1121.68 912.58 1117.45 912.49 1110.61
  Q 912.49 1110.12 912.08 1109.85
  C 908.74 1107.60 901.54 1107.43 897.60 1107.45
  C 887.62 1107.51 887.79 1103.30 890.46 1095.37
  Q 890.63 1094.88 890.40 1094.42
  C 889.00 1091.52 888.39 1088.87 886.25 1086.33
  Z"
/>

<!-- Sul -->
<path id="PR" class="sul" stroke="#000" stroke-width="3" fill="#ffffff" d="
  M 754.75 1162.13
  C 748.78 1163.32 744.45 1164.76 741.69 1157.86
  Q 738.49 1149.86 735.12 1141.92
  C 733.75 1138.67 731.30 1136.40 727.77 1137.28
  C 721.60 1138.80 710.92 1138.03 713.16 1129.02
  C 715.07 1121.36 716.39 1113.66 719.25 1106.27
  C 720.66 1102.60 721.38 1099.31 721.39 1095.05
  C 721.41 1089.86 720.54 1077.73 729.24 1079.18
  A 1.28 1.28 0.0 0 0 730.73 1077.93
  C 730.77 1075.33 730.56 1072.93 731.20 1070.42
  Q 732.71 1064.42 734.47 1058.47
  Q 734.64 1057.87 735.23 1057.64
  L 739.80 1055.86
  A 1.96 1.95 0.7 0 0 740.87 1054.82
  C 745.70 1043.61 747.07 1036.44 759.70 1031.71
  A 1.77 1.76 9.1 0 0 760.48 1031.15
  C 762.39 1028.77 766.47 1025.13 769.95 1026.85
  A 1.92 1.84 55.3 0 0 770.89 1027.04
  Q 779.53 1026.59 788.00 1028.30
  C 789.84 1028.67 792.05 1028.46 793.62 1027.47
  C 800.71 1023.02 807.50 1029.03 814.70 1031.16
  C 818.32 1032.23 822.90 1030.95 826.99 1031.53
  A 1.80 1.79 -21.3 0 1 827.88 1031.92
  Q 830.79 1034.30 834.42 1034.97
  C 838.09 1035.66 839.95 1037.22 842.49 1039.56
  Q 842.86 1039.91 843.37 1039.92
  Q 855.04 1040.28 866.68 1040.04
  C 870.93 1039.96 875.07 1046.28 877.33 1049.41
  C 878.32 1050.79 880.93 1053.22 880.85 1055.48
  Q 880.67 1061.24 881.26 1064.88
  C 881.93 1068.93 885.60 1070.58 882.35 1075.27
  A 2.02 2.02 0.0 0 0 882.71 1077.98
  Q 888.89 1083.20 892.04 1091.09
  C 893.61 1095.02 892.80 1098.34 891.35 1102.07
  Q 891.18 1102.50 891.48 1102.84
  C 895.19 1107.14 908.07 1102.13 913.88 1108.31
  Q 914.25 1108.70 914.35 1109.22
  L 915.78 1116.69
  Q 915.89 1117.29 916.49 1117.47
  C 917.82 1117.85 918.72 1118.31 920.22 1118.21
  C 926.79 1117.76 931.37 1130.56 924.10 1131.90
  C 922.18 1132.26 919.58 1131.14 917.29 1131.01
  Q 916.79 1130.98 916.62 1131.45
  L 914.39 1137.54
  Q 914.23 1137.98 914.44 1138.40
  C 915.32 1140.15 916.77 1141.62 916.96 1143.50
  Q 917.42 1147.89 913.20 1149.83
  A 1.45 1.45 0.0 0 0 912.51 1150.49
  C 910.97 1153.59 909.24 1155.06 905.54 1155.21
  Q 901.15 1155.39 896.81 1155.95
  C 895.03 1156.18 892.70 1155.67 890.47 1157.00
  Q 885.50 1159.97 883.57 1161.31
  C 874.64 1167.57 870.25 1155.69 861.78 1156.79
  C 858.35 1157.24 856.59 1157.24 853.77 1157.25
  A 1.45 1.45 0.0 0 1 852.87 1156.96
  C 846.36 1152.16 845.10 1159.49 840.68 1160.90
  C 837.05 1162.06 828.26 1164.51 826.82 1168.29
  Q 825.30 1172.24 823.60 1175.55
  A 3.62 3.61 -71.4 0 1 819.76 1177.46
  Q 809.88 1175.75 800.13 1174.26
  C 795.66 1173.58 792.09 1170.15 788.44 1169.07
  C 782.43 1167.29 774.20 1166.38 766.69 1166.15
  Q 760.67 1165.96 755.67 1162.33
  Q 755.25 1162.02 754.75 1162.13
  Z"
/>

<path id="RS" class="sul" stroke="#000" stroke-width="3" fill="#ffffff" d="
  M 720.69 1360.31
  C 718.03 1357.48 716.20 1353.04 713.20 1349.13
  Q 712.90 1348.74 712.42 1348.60
  C 709.15 1347.70 707.08 1347.09 703.65 1345.16
  C 699.31 1342.72 694.81 1344.55 691.82 1339.57
  Q 688.18 1333.51 684.72 1327.36
  Q 684.49 1326.94 684.01 1326.93
  C 678.41 1326.83 679.68 1334.15 674.57 1335.28
  Q 672.03 1335.84 669.71 1334.10
  Q 669.31 1333.81 669.18 1333.33
  Q 668.12 1329.57 668.56 1325.64
  Q 668.62 1325.17 668.30 1324.80
  C 665.45 1321.50 661.56 1318.39 659.06 1316.10
  Q 649.45 1307.27 645.75 1303.76
  C 642.23 1300.41 636.15 1301.96 633.06 1304.81
  Q 631.19 1306.54 629.91 1306.90
  C 625.43 1308.17 617.21 1307.01 621.27 1299.93
  Q 623.07 1296.79 625.46 1294.06
  C 627.23 1292.04 628.78 1288.83 631.00 1287.23
  C 641.35 1279.78 645.40 1271.38 652.70 1260.33
  C 657.71 1252.75 665.05 1246.26 670.98 1239.23
  C 674.08 1235.56 678.49 1236.71 679.96 1230.62
  Q 680.08 1230.11 680.48 1229.79
  Q 685.10 1226.00 689.21 1221.72
  C 691.93 1218.89 694.85 1217.93 698.32 1216.57
  C 703.59 1214.50 701.28 1209.30 706.96 1207.24
  Q 714.50 1204.50 721.69 1200.95
  C 723.32 1200.14 724.20 1198.35 725.75 1197.79
  Q 728.02 1196.98 730.20 1195.98
  C 734.40 1194.05 736.60 1190.66 742.26 1192.61
  C 748.67 1194.82 750.88 1187.91 757.70 1191.87
  A 1.48 1.39 -31.9 0 0 758.60 1192.05
  C 763.89 1191.40 766.72 1194.03 770.52 1195.09
  C 775.71 1196.54 780.39 1195.59 785.37 1196.79
  C 788.08 1197.45 790.75 1196.92 793.11 1197.78
  C 797.31 1199.31 799.68 1202.83 802.89 1204.31
  C 805.66 1205.58 808.93 1205.59 811.34 1206.42
  C 816.73 1208.25 821.35 1210.41 823.39 1215.49
  Q 823.59 1215.98 824.08 1216.18
  C 828.14 1217.81 834.22 1224.76 836.14 1228.71
  C 838.94 1234.46 845.93 1240.59 853.63 1240.45
  Q 861.18 1240.31 868.41 1242.49
  A 1.59 1.59 0.0 0 1 869.19 1243.01
  C 873.27 1247.95 867.34 1250.77 865.23 1254.37
  A 1.62 1.62 0.0 0 0 865.01 1255.32
  Q 865.43 1261.14 861.19 1265.18
  Q 860.42 1265.92 860.42 1267.86
  Q 860.42 1268.39 860.94 1268.40
  C 864.88 1268.50 871.22 1271.11 869.69 1275.93
  C 867.07 1284.20 858.26 1292.61 855.23 1301.50
  Q 851.84 1311.45 847.78 1319.15
  C 841.60 1330.83 832.30 1343.02 822.39 1352.63
  C 816.05 1358.78 808.17 1363.39 800.49 1368.14
  C 792.83 1372.87 786.67 1379.75 782.86 1387.76
  Q 777.99 1397.97 776.43 1402.95
  C 774.91 1407.84 774.18 1410.79 770.91 1414.78
  C 765.95 1420.85 761.54 1426.43 755.92 1429.48
  C 742.18 1436.94 745.22 1414.89 745.28 1409.23
  C 745.32 1404.38 749.18 1404.18 752.27 1401.87
  Q 752.67 1401.58 752.79 1401.10
  C 753.32 1398.88 753.46 1397.26 755.12 1395.48
  Q 756.65 1393.83 757.86 1391.91
  Q 758.19 1391.40 757.60 1391.23
  Q 755.15 1390.53 752.80 1389.67
  C 749.67 1388.51 747.65 1385.97 744.65 1384.39
  A 1.91 1.91 0.0 0 1 743.67 1383.06
  Q 742.50 1376.58 739.22 1371.57
  C 737.29 1368.62 734.20 1367.32 731.21 1365.51
  C 728.08 1363.62 723.14 1362.93 720.69 1360.31
  Z"
/>

<path id="SC" class="sul" stroke="#000" stroke-width="3" fill="#ffffff" d="
  M 831.82 1226.66
  Q 828.14 1224.52 826.46 1220.54
  A 1.08 1.06 -3.3 0 0 825.76 1219.93
  C 820.88 1218.54 821.55 1214.89 818.32 1213.01
  Q 815.43 1211.34 812.39 1209.98
  C 808.30 1208.15 801.52 1208.32 798.06 1204.70
  C 793.11 1199.53 789.37 1199.40 781.58 1199.35
  C 776.37 1199.32 768.78 1198.67 764.74 1195.31
  A 1.41 1.35 -24.1 0 0 763.85 1194.99
  C 760.60 1195.03 757.03 1195.67 754.52 1192.92
  Q 754.17 1192.53 753.70 1192.76
  C 750.50 1194.28 747.42 1196.42 743.57 1195.65
  C 737.24 1194.37 740.12 1188.97 742.13 1185.52
  A 1.20 1.16 -40.1 0 0 742.23 1184.55
  C 741.79 1183.26 741.67 1182.14 741.08 1180.86
  C 738.89 1176.17 741.55 1169.72 742.68 1164.98
  C 743.73 1160.62 750.59 1159.90 754.94 1159.44
  A 1.70 1.69 -34.6 0 1 755.87 1159.61
  C 760.38 1161.91 764.39 1163.67 769.73 1163.66
  Q 779.92 1163.65 789.75 1166.54
  C 793.43 1167.62 796.49 1170.82 800.49 1171.55
  Q 805.65 1172.49 812.87 1173.29
  C 815.12 1173.54 817.70 1174.43 820.20 1174.74
  A 0.80 0.79 18.2 0 0 820.98 1174.35
  C 823.68 1169.63 823.49 1164.70 828.48 1162.56
  Q 834.67 1159.92 840.96 1157.56
  A 1.74 1.74 0.0 0 0 841.76 1156.96
  Q 846.01 1151.15 852.52 1153.45
  C 856.43 1154.84 860.29 1154.29 864.22 1153.72
  Q 864.73 1153.64 865.21 1153.85
  C 870.04 1155.97 873.65 1158.82 878.72 1160.47
  A 1.06 1.05 -52.8 0 0 879.64 1160.34
  Q 883.95 1157.49 888.36 1154.89
  C 892.50 1152.45 898.46 1153.36 903.73 1152.27
  C 911.09 1150.75 910.14 1160.51 909.52 1164.53
  C 908.61 1170.46 907.20 1176.87 908.02 1182.85
  C 908.39 1185.60 908.17 1188.48 908.47 1191.02
  C 908.93 1194.81 908.69 1204.64 911.94 1206.88
  A 1.93 1.87 -86.0 0 1 912.58 1207.64
  C 914.15 1210.96 913.40 1215.67 912.70 1219.24
  C 911.89 1223.39 908.83 1225.64 907.73 1229.57
  C 905.97 1235.93 903.62 1244.22 899.42 1248.98
  C 895.56 1253.36 889.22 1255.09 884.73 1258.92
  Q 879.79 1263.14 876.11 1268.59
  C 872.52 1273.91 868.65 1273.91 863.06 1271.78
  C 856.49 1269.27 857.50 1264.42 861.52 1260.00
  Q 861.86 1259.63 861.83 1259.14
  C 861.52 1252.21 865.10 1251.18 868.13 1246.14
  Q 868.63 1245.31 867.69 1245.09
  Q 860.18 1243.30 853.03 1243.47
  C 848.72 1243.58 840.79 1239.11 838.73 1237.28
  Q 836.13 1234.96 832.54 1227.44
  A 1.81 1.81 0.0 0 0 831.82 1226.66
  Z"
/>

</svg>
